G04 #@! TF.GenerationSoftware,KiCad,Pcbnew,7.0.7*
G04 #@! TF.CreationDate,2023-10-18T16:13:20+03:00*
G04 #@! TF.ProjectId,pcb,7063622e-6b69-4636-9164-5f7063625858,rev?*
G04 #@! TF.SameCoordinates,Original*
G04 #@! TF.FileFunction,Soldermask,Top*
G04 #@! TF.FilePolarity,Negative*
%FSLAX46Y46*%
G04 Gerber Fmt 4.6, Leading zero omitted, Abs format (unit mm)*
G04 Created by KiCad (PCBNEW 7.0.7) date 2023-10-18 16:13:20*
%MOMM*%
%LPD*%
G01*
G04 APERTURE LIST*
G04 Aperture macros list*
%AMRoundRect*
0 Rectangle with rounded corners*
0 $1 Rounding radius*
0 $2 $3 $4 $5 $6 $7 $8 $9 X,Y pos of 4 corners*
0 Add a 4 corners polygon primitive as box body*
4,1,4,$2,$3,$4,$5,$6,$7,$8,$9,$2,$3,0*
0 Add four circle primitives for the rounded corners*
1,1,$1+$1,$2,$3*
1,1,$1+$1,$4,$5*
1,1,$1+$1,$6,$7*
1,1,$1+$1,$8,$9*
0 Add four rect primitives between the rounded corners*
20,1,$1+$1,$2,$3,$4,$5,0*
20,1,$1+$1,$4,$5,$6,$7,0*
20,1,$1+$1,$6,$7,$8,$9,0*
20,1,$1+$1,$8,$9,$2,$3,0*%
%AMFreePoly0*
4,1,19,0.550000,-0.750000,0.000000,-0.750000,0.000000,-0.744911,-0.071157,-0.744911,-0.207708,-0.704816,-0.327430,-0.627875,-0.420627,-0.520320,-0.479746,-0.390866,-0.500000,-0.250000,-0.500000,0.250000,-0.479746,0.390866,-0.420627,0.520320,-0.327430,0.627875,-0.207708,0.704816,-0.071157,0.744911,0.000000,0.744911,0.000000,0.750000,0.550000,0.750000,0.550000,-0.750000,0.550000,-0.750000,
$1*%
%AMFreePoly1*
4,1,19,0.000000,0.744911,0.071157,0.744911,0.207708,0.704816,0.327430,0.627875,0.420627,0.520320,0.479746,0.390866,0.500000,0.250000,0.500000,-0.250000,0.479746,-0.390866,0.420627,-0.520320,0.327430,-0.627875,0.207708,-0.704816,0.071157,-0.744911,0.000000,-0.744911,0.000000,-0.750000,-0.550000,-0.750000,-0.550000,0.750000,0.000000,0.750000,0.000000,0.744911,0.000000,0.744911,
$1*%
G04 Aperture macros list end*
%ADD10C,1.800000*%
%ADD11C,1.150000*%
%ADD12R,2.500000X2.500000*%
%ADD13C,2.500000*%
%ADD14C,1.600000*%
%ADD15RoundRect,0.250000X0.875000X1.025000X-0.875000X1.025000X-0.875000X-1.025000X0.875000X-1.025000X0*%
%ADD16FreePoly0,180.000000*%
%ADD17R,1.000000X1.500000*%
%ADD18FreePoly1,180.000000*%
%ADD19C,1.500000*%
%ADD20R,1.600000X1.600000*%
%ADD21O,1.600000X1.600000*%
%ADD22C,1.200000*%
%ADD23RoundRect,0.250000X0.350000X0.450000X-0.350000X0.450000X-0.350000X-0.450000X0.350000X-0.450000X0*%
%ADD24RoundRect,0.102000X0.800000X-1.500000X0.800000X1.500000X-0.800000X1.500000X-0.800000X-1.500000X0*%
%ADD25RoundRect,0.102000X2.900000X-3.100000X2.900000X3.100000X-2.900000X3.100000X-2.900000X-3.100000X0*%
%ADD26RoundRect,0.250000X-0.337500X-0.475000X0.337500X-0.475000X0.337500X0.475000X-0.337500X0.475000X0*%
%ADD27RoundRect,0.250000X-0.450000X0.350000X-0.450000X-0.350000X0.450000X-0.350000X0.450000X0.350000X0*%
%ADD28RoundRect,0.237500X-0.287500X-0.237500X0.287500X-0.237500X0.287500X0.237500X-0.287500X0.237500X0*%
%ADD29RoundRect,0.250000X-0.475000X0.337500X-0.475000X-0.337500X0.475000X-0.337500X0.475000X0.337500X0*%
%ADD30R,0.300000X1.400000*%
%ADD31RoundRect,0.250000X-0.350000X-0.450000X0.350000X-0.450000X0.350000X0.450000X-0.350000X0.450000X0*%
%ADD32RoundRect,0.102000X0.749000X0.749000X-0.749000X0.749000X-0.749000X-0.749000X0.749000X-0.749000X0*%
%ADD33C,1.702000*%
%ADD34RoundRect,0.150000X-0.825000X-0.150000X0.825000X-0.150000X0.825000X0.150000X-0.825000X0.150000X0*%
%ADD35R,1.000000X3.150000*%
%ADD36RoundRect,0.237500X0.287500X0.237500X-0.287500X0.237500X-0.287500X-0.237500X0.287500X-0.237500X0*%
%ADD37C,1.400000*%
%ADD38RoundRect,0.150000X0.825000X0.150000X-0.825000X0.150000X-0.825000X-0.150000X0.825000X-0.150000X0*%
%ADD39RoundRect,0.250000X0.450000X-0.350000X0.450000X0.350000X-0.450000X0.350000X-0.450000X-0.350000X0*%
%ADD40C,1.440000*%
%ADD41RoundRect,0.250000X0.475000X-0.337500X0.475000X0.337500X-0.475000X0.337500X-0.475000X-0.337500X0*%
%ADD42R,2.510000X1.000000*%
%ADD43C,3.159000*%
%ADD44C,2.454000*%
%ADD45C,2.304000*%
%ADD46C,0.800000*%
%ADD47C,6.400000*%
%ADD48R,2.000000X0.650000*%
%ADD49RoundRect,0.102000X0.610000X-0.610000X0.610000X0.610000X-0.610000X0.610000X-0.610000X-0.610000X0*%
%ADD50C,1.424000*%
G04 APERTURE END LIST*
D10*
X109224302Y-62066352D03*
X103624302Y-75266352D03*
D11*
X105174302Y-73666352D03*
X105174302Y-71666352D03*
X105174302Y-69666352D03*
X105174302Y-67666352D03*
X105174302Y-65666352D03*
X105174302Y-63666352D03*
X107674302Y-73666352D03*
X107674302Y-71666352D03*
X107674302Y-69666352D03*
X107674302Y-67666352D03*
X107674302Y-65666352D03*
X107674302Y-63666352D03*
D12*
X114300000Y-60830000D03*
D13*
X119300000Y-60830000D03*
D12*
X127080000Y-60830000D03*
D13*
X132080000Y-60830000D03*
X144740000Y-60830000D03*
D12*
X139740000Y-60830000D03*
D14*
X183134000Y-67564000D03*
X183134000Y-75184000D03*
X185674000Y-75184000D03*
X185674000Y-67564000D03*
X195834000Y-75184000D03*
X195834000Y-67564000D03*
X169899000Y-134488000D03*
X177519000Y-134488000D03*
X177519000Y-131948000D03*
X169899000Y-131948000D03*
X177519000Y-121788000D03*
X169899000Y-121788000D03*
X157199000Y-94261000D03*
X164819000Y-94261000D03*
X164819000Y-91721000D03*
X157199000Y-91721000D03*
X164819000Y-81561000D03*
X157199000Y-81561000D03*
X169899000Y-114660000D03*
X177519000Y-114660000D03*
X177519000Y-112120000D03*
X169899000Y-112120000D03*
X177519000Y-101960000D03*
X169899000Y-101960000D03*
X169899000Y-94261000D03*
X177519000Y-94261000D03*
X177519000Y-91721000D03*
X169899000Y-91721000D03*
X177519000Y-81561000D03*
X169899000Y-81561000D03*
D15*
X158236000Y-103394000D03*
X151836000Y-103394000D03*
X158236000Y-108982000D03*
X151836000Y-108982000D03*
D16*
X196372000Y-94488000D03*
D17*
X195072000Y-94488000D03*
D18*
X193772000Y-94488000D03*
D16*
X196372000Y-91186000D03*
D17*
X195072000Y-91186000D03*
D18*
X193772000Y-91186000D03*
D19*
X155513000Y-134382000D03*
X138176000Y-144272000D03*
X141224000Y-118618000D03*
X162625000Y-131842000D03*
X141224000Y-141478000D03*
X162625000Y-129048000D03*
X163164000Y-115316000D03*
X190246000Y-78994000D03*
X182626000Y-78994000D03*
X186436000Y-83312000D03*
X193294000Y-88138000D03*
X186436000Y-78994000D03*
X150876000Y-75184000D03*
X196342000Y-122682000D03*
X186436000Y-117602000D03*
X138176000Y-121412000D03*
D20*
X182636000Y-86878000D03*
D21*
X182636000Y-89418000D03*
X182636000Y-91958000D03*
X182636000Y-94498000D03*
X190256000Y-94498000D03*
X190256000Y-91958000D03*
X190256000Y-89418000D03*
X190256000Y-86878000D03*
D22*
X191516000Y-61976000D03*
X189516000Y-61976000D03*
D23*
X149655000Y-120666000D03*
X147655000Y-120666000D03*
D24*
X172973000Y-55685000D03*
X168403000Y-55685000D03*
D25*
X170688000Y-62865000D03*
D26*
X161522500Y-59055000D03*
X163597500Y-59055000D03*
D23*
X163625000Y-126254000D03*
X161625000Y-126254000D03*
X142208000Y-129032000D03*
X140208000Y-129032000D03*
D27*
X182118000Y-116348000D03*
X182118000Y-118348000D03*
D28*
X104422000Y-136652000D03*
X106172000Y-136652000D03*
D23*
X178292000Y-118110000D03*
X176292000Y-118110000D03*
D29*
X136948000Y-80750500D03*
X136948000Y-82825500D03*
D30*
X195342000Y-130978000D03*
X195842000Y-130978000D03*
X196342000Y-130978000D03*
X196842000Y-130978000D03*
X197342000Y-130978000D03*
X197342000Y-126578000D03*
X196842000Y-126578000D03*
X196342000Y-126578000D03*
X195842000Y-126578000D03*
X195342000Y-126578000D03*
D31*
X147671000Y-143018000D03*
X149671000Y-143018000D03*
X173244000Y-137414000D03*
X175244000Y-137414000D03*
D32*
X110946000Y-110708000D03*
D33*
X104446000Y-110708000D03*
X110946000Y-106208000D03*
X104446000Y-106208000D03*
D34*
X153038000Y-136668000D03*
X153038000Y-137938000D03*
X153038000Y-139208000D03*
X153038000Y-140478000D03*
X153038000Y-141748000D03*
X153038000Y-143018000D03*
X153038000Y-144288000D03*
X157988000Y-144288000D03*
X157988000Y-143018000D03*
X157988000Y-141748000D03*
X157988000Y-140478000D03*
X157988000Y-139208000D03*
X157988000Y-137938000D03*
X157988000Y-136668000D03*
D23*
X142208000Y-134620000D03*
X140208000Y-134620000D03*
D20*
X182636000Y-123200000D03*
D21*
X182636000Y-125740000D03*
X182636000Y-128280000D03*
X182636000Y-130820000D03*
X190256000Y-130820000D03*
X190256000Y-128280000D03*
X190256000Y-125740000D03*
X190256000Y-123200000D03*
D35*
X114300000Y-85120000D03*
X114300000Y-90170000D03*
X111760000Y-85120000D03*
X111760000Y-90170000D03*
D26*
X161522500Y-66675000D03*
X163597500Y-66675000D03*
D31*
X147655000Y-131842000D03*
X149655000Y-131842000D03*
D23*
X163625000Y-140224000D03*
X161625000Y-140224000D03*
D29*
X133350000Y-80750500D03*
X133350000Y-82825500D03*
D31*
X161641000Y-107347000D03*
X163641000Y-107347000D03*
D36*
X183755000Y-63754000D03*
X182005000Y-63754000D03*
D30*
X195342000Y-101768000D03*
X195842000Y-101768000D03*
X196342000Y-101768000D03*
X196842000Y-101768000D03*
X197342000Y-101768000D03*
X197342000Y-97368000D03*
X196842000Y-97368000D03*
X196342000Y-97368000D03*
X195842000Y-97368000D03*
X195342000Y-97368000D03*
D37*
X171704000Y-70231000D03*
D27*
X165608000Y-102362000D03*
X165608000Y-104362000D03*
D23*
X165338000Y-98044000D03*
X163338000Y-98044000D03*
X142208000Y-131826000D03*
X140208000Y-131826000D03*
D28*
X104408000Y-132080000D03*
X106158000Y-132080000D03*
D23*
X142176000Y-126238000D03*
X140176000Y-126238000D03*
D32*
X110946000Y-119598000D03*
D33*
X104446000Y-119598000D03*
X110946000Y-115098000D03*
X104446000Y-115098000D03*
D23*
X163625000Y-134636000D03*
X161625000Y-134636000D03*
D31*
X195342000Y-83312000D03*
X197342000Y-83312000D03*
D38*
X156795000Y-71019000D03*
X156795000Y-69749000D03*
X156795000Y-68479000D03*
X156795000Y-67209000D03*
X151845000Y-67209000D03*
X151845000Y-68479000D03*
X151845000Y-69749000D03*
X151845000Y-71019000D03*
D23*
X163625000Y-117872000D03*
X161625000Y-117872000D03*
D27*
X167386000Y-74692000D03*
X167386000Y-76692000D03*
D39*
X113792000Y-127238000D03*
X113792000Y-125238000D03*
X104648000Y-127238000D03*
X104648000Y-125238000D03*
D23*
X163625000Y-137430000D03*
X161625000Y-137430000D03*
D26*
X161522500Y-71755000D03*
X163597500Y-71755000D03*
D38*
X156780000Y-58319000D03*
X156780000Y-57049000D03*
X156780000Y-55779000D03*
X156780000Y-54509000D03*
X151830000Y-54509000D03*
X151830000Y-55779000D03*
X151830000Y-57049000D03*
X151830000Y-58319000D03*
D30*
X195342000Y-110785000D03*
X195842000Y-110785000D03*
X196342000Y-110785000D03*
X196842000Y-110785000D03*
X197342000Y-110785000D03*
X197342000Y-106385000D03*
X196842000Y-106385000D03*
X196342000Y-106385000D03*
X195842000Y-106385000D03*
X195342000Y-106385000D03*
D35*
X108966000Y-85120000D03*
X108966000Y-90170000D03*
X106426000Y-85120000D03*
X106426000Y-90170000D03*
D34*
X153038000Y-124222000D03*
X153038000Y-125492000D03*
X153038000Y-126762000D03*
X153038000Y-128032000D03*
X153038000Y-129302000D03*
X153038000Y-130572000D03*
X153038000Y-131842000D03*
X157988000Y-131842000D03*
X157988000Y-130572000D03*
X157988000Y-129302000D03*
X157988000Y-128032000D03*
X157988000Y-126762000D03*
X157988000Y-125492000D03*
X157988000Y-124222000D03*
D28*
X104422000Y-134366000D03*
X106172000Y-134366000D03*
D36*
X170801000Y-118110000D03*
X169051000Y-118110000D03*
D40*
X145034000Y-114046000D03*
X142494000Y-114046000D03*
X139954000Y-114046000D03*
D31*
X161625000Y-120666000D03*
X163625000Y-120666000D03*
D39*
X140516000Y-82788000D03*
X140516000Y-80788000D03*
D31*
X147671000Y-140224000D03*
X149671000Y-140224000D03*
D39*
X144054000Y-82788000D03*
X144054000Y-80788000D03*
D41*
X190754000Y-100351500D03*
X190754000Y-98276500D03*
D23*
X149655000Y-137430000D03*
X147655000Y-137430000D03*
D42*
X193933000Y-138430000D03*
X190623000Y-135890000D03*
D43*
X129825000Y-57020000D03*
X129825000Y-72520000D03*
X142525000Y-57020000D03*
X142525000Y-72520000D03*
D41*
X156210000Y-63775500D03*
X156210000Y-61700500D03*
D37*
X176784000Y-70231000D03*
D31*
X147655000Y-129048000D03*
X149655000Y-129048000D03*
D42*
X140839000Y-106172000D03*
X144149000Y-108712000D03*
D39*
X186436000Y-100314000D03*
X186436000Y-98314000D03*
D23*
X178292000Y-98044000D03*
X176292000Y-98044000D03*
D37*
X172720000Y-143510000D03*
D44*
X185430000Y-140960000D03*
X185430000Y-146060000D03*
X180330000Y-146060000D03*
X180330000Y-140960000D03*
D45*
X182880000Y-143510000D03*
D28*
X104422000Y-138938000D03*
X106172000Y-138938000D03*
X182005000Y-137541000D03*
X183755000Y-137541000D03*
D23*
X197088000Y-63754000D03*
X195088000Y-63754000D03*
D39*
X111506000Y-127238000D03*
X111506000Y-125238000D03*
D46*
X193040000Y-55880000D03*
X193742944Y-54182944D03*
X193742944Y-57577056D03*
X195440000Y-53480000D03*
D47*
X195440000Y-55880000D03*
D46*
X195440000Y-58280000D03*
X197137056Y-54182944D03*
X197137056Y-57577056D03*
X197840000Y-55880000D03*
D48*
X171010000Y-75708000D03*
X174430000Y-76658000D03*
X174430000Y-74758000D03*
D26*
X161522500Y-53684000D03*
X163597500Y-53684000D03*
D23*
X197342000Y-79502000D03*
X195342000Y-79502000D03*
D31*
X147655000Y-126254000D03*
X149655000Y-126254000D03*
D39*
X106934000Y-127238000D03*
X106934000Y-125238000D03*
D31*
X161625000Y-145812000D03*
X163625000Y-145812000D03*
D22*
X125492000Y-91186000D03*
X127492000Y-91186000D03*
X195342000Y-116586000D03*
X197342000Y-116586000D03*
D28*
X104408000Y-129794000D03*
X106158000Y-129794000D03*
D41*
X151892000Y-63775500D03*
X151892000Y-61700500D03*
D31*
X147655000Y-145812000D03*
X149655000Y-145812000D03*
D36*
X157847000Y-98044000D03*
X156097000Y-98044000D03*
D20*
X118374000Y-104902000D03*
D21*
X118374000Y-107442000D03*
X118374000Y-109982000D03*
X118374000Y-112522000D03*
X118374000Y-115062000D03*
X118374000Y-117602000D03*
X118374000Y-120142000D03*
X118374000Y-122682000D03*
X118374000Y-125222000D03*
X118374000Y-127762000D03*
X118374000Y-130302000D03*
X118374000Y-132842000D03*
X118374000Y-135382000D03*
X118374000Y-137922000D03*
X118374000Y-140462000D03*
X133614000Y-140462000D03*
X133614000Y-137922000D03*
X133614000Y-135382000D03*
X133614000Y-132842000D03*
X133614000Y-130302000D03*
X133614000Y-127762000D03*
X133614000Y-125222000D03*
X133614000Y-122682000D03*
X133614000Y-120142000D03*
X133614000Y-117602000D03*
X133614000Y-115062000D03*
X133614000Y-112522000D03*
X133614000Y-109982000D03*
X133614000Y-107442000D03*
X133614000Y-104902000D03*
D45*
X182890000Y-57160000D03*
D44*
X185440000Y-59710000D03*
X185440000Y-54610000D03*
X180340000Y-54610000D03*
X180340000Y-59710000D03*
D39*
X151130000Y-82788000D03*
X151130000Y-80788000D03*
D36*
X170801000Y-98044000D03*
X169051000Y-98044000D03*
D39*
X182118000Y-100330000D03*
X182118000Y-98330000D03*
D46*
X104280000Y-144780000D03*
X104982944Y-143082944D03*
X104982944Y-146477056D03*
X106680000Y-142380000D03*
D47*
X106680000Y-144780000D03*
D46*
X106680000Y-147180000D03*
X108377056Y-143082944D03*
X108377056Y-146477056D03*
X109080000Y-144780000D03*
X104280000Y-55740000D03*
X104982944Y-54042944D03*
X104982944Y-57437056D03*
X106680000Y-53340000D03*
D47*
X106680000Y-55740000D03*
D46*
X106680000Y-58140000D03*
X108377056Y-54042944D03*
X108377056Y-57437056D03*
X109080000Y-55740000D03*
D27*
X178562000Y-74708000D03*
X178562000Y-76708000D03*
D37*
X178054000Y-63754000D03*
D26*
X189970500Y-83312000D03*
X192045500Y-83312000D03*
D23*
X163625000Y-123460000D03*
X161625000Y-123460000D03*
D31*
X161625000Y-143018000D03*
X163625000Y-143018000D03*
D23*
X163641000Y-110141000D03*
X161641000Y-110141000D03*
D39*
X147592000Y-82788000D03*
X147592000Y-80788000D03*
X109220000Y-127238000D03*
X109220000Y-125238000D03*
D43*
X117125000Y-57020000D03*
X117125000Y-72520000D03*
D23*
X183626000Y-83312000D03*
X181626000Y-83312000D03*
D31*
X147671000Y-123460000D03*
X149671000Y-123460000D03*
D20*
X182636000Y-105039000D03*
D21*
X182636000Y-107579000D03*
X182636000Y-110119000D03*
X182636000Y-112659000D03*
X190256000Y-112659000D03*
X190256000Y-110119000D03*
X190256000Y-107579000D03*
X190256000Y-105039000D03*
D37*
X166958000Y-70231000D03*
X163164000Y-112792000D03*
D23*
X149655000Y-134636000D03*
X147655000Y-134636000D03*
D49*
X133350000Y-95236000D03*
D50*
X133350000Y-87136000D03*
X135890000Y-95236000D03*
X135890000Y-87136000D03*
X138430000Y-95236000D03*
X138430000Y-87136000D03*
X140970000Y-95236000D03*
X140970000Y-87136000D03*
X143510000Y-95236000D03*
X143510000Y-87136000D03*
X146050000Y-95236000D03*
X146050000Y-87136000D03*
X148590000Y-95236000D03*
X148590000Y-87136000D03*
X151130000Y-95236000D03*
X151130000Y-87136000D03*
D42*
X144149000Y-102108000D03*
X140839000Y-99568000D03*
D27*
X162560000Y-102394000D03*
X162560000Y-104394000D03*
D31*
X140208000Y-137414000D03*
X142208000Y-137414000D03*
D46*
X193180000Y-144780000D03*
X193882944Y-143082944D03*
X193882944Y-146477056D03*
X195580000Y-142380000D03*
D47*
X195580000Y-144780000D03*
D46*
X195580000Y-147180000D03*
X197277056Y-143082944D03*
X197277056Y-146477056D03*
X197980000Y-144780000D03*
D22*
X125492000Y-81788000D03*
X127492000Y-81788000D03*
D34*
X153038000Y-113300000D03*
X153038000Y-114570000D03*
X153038000Y-115840000D03*
X153038000Y-117110000D03*
X153038000Y-118380000D03*
X153038000Y-119650000D03*
X153038000Y-120920000D03*
X157988000Y-120920000D03*
X157988000Y-119650000D03*
X157988000Y-118380000D03*
X157988000Y-117110000D03*
X157988000Y-115840000D03*
X157988000Y-114570000D03*
X157988000Y-113300000D03*
D27*
X190754000Y-116602000D03*
X190754000Y-118602000D03*
M02*
