G04 #@! TF.GenerationSoftware,KiCad,Pcbnew,7.0.7*
G04 #@! TF.CreationDate,2023-10-18T16:13:19+03:00*
G04 #@! TF.ProjectId,pcb,7063622e-6b69-4636-9164-5f7063625858,rev?*
G04 #@! TF.SameCoordinates,Original*
G04 #@! TF.FileFunction,Legend,Bot*
G04 #@! TF.FilePolarity,Positive*
%FSLAX46Y46*%
G04 Gerber Fmt 4.6, Leading zero omitted, Abs format (unit mm)*
G04 Created by KiCad (PCBNEW 7.0.7) date 2023-10-18 16:13:19*
%MOMM*%
%LPD*%
G01*
G04 APERTURE LIST*
G04 Aperture macros list*
%AMRoundRect*
0 Rectangle with rounded corners*
0 $1 Rounding radius*
0 $2 $3 $4 $5 $6 $7 $8 $9 X,Y pos of 4 corners*
0 Add a 4 corners polygon primitive as box body*
4,1,4,$2,$3,$4,$5,$6,$7,$8,$9,$2,$3,0*
0 Add four circle primitives for the rounded corners*
1,1,$1+$1,$2,$3*
1,1,$1+$1,$4,$5*
1,1,$1+$1,$6,$7*
1,1,$1+$1,$8,$9*
0 Add four rect primitives between the rounded corners*
20,1,$1+$1,$2,$3,$4,$5,0*
20,1,$1+$1,$4,$5,$6,$7,0*
20,1,$1+$1,$6,$7,$8,$9,0*
20,1,$1+$1,$8,$9,$2,$3,0*%
G04 Aperture macros list end*
%ADD10C,0.150000*%
%ADD11C,0.120000*%
%ADD12C,1.800000*%
%ADD13C,1.150000*%
%ADD14R,2.500000X2.500000*%
%ADD15C,2.500000*%
%ADD16C,1.600000*%
%ADD17R,1.600000X1.600000*%
%ADD18O,1.600000X1.600000*%
%ADD19C,1.200000*%
%ADD20RoundRect,0.102000X0.749000X0.749000X-0.749000X0.749000X-0.749000X-0.749000X0.749000X-0.749000X0*%
%ADD21C,1.702000*%
%ADD22C,1.400000*%
%ADD23C,1.440000*%
%ADD24C,3.159000*%
%ADD25C,2.454000*%
%ADD26C,2.304000*%
%ADD27C,0.800000*%
%ADD28C,6.400000*%
%ADD29RoundRect,0.102000X0.610000X-0.610000X0.610000X0.610000X-0.610000X0.610000X-0.610000X-0.610000X0*%
%ADD30C,1.424000*%
%ADD31RoundRect,0.250000X0.350000X0.450000X-0.350000X0.450000X-0.350000X-0.450000X0.350000X-0.450000X0*%
%ADD32RoundRect,0.250000X-0.350000X-0.450000X0.350000X-0.450000X0.350000X0.450000X-0.350000X0.450000X0*%
%ADD33RoundRect,0.250000X-0.450000X0.350000X-0.450000X-0.350000X0.450000X-0.350000X0.450000X0.350000X0*%
%ADD34R,2.000000X0.650000*%
%ADD35RoundRect,0.250000X0.250000X-0.250000X0.250000X0.250000X-0.250000X0.250000X-0.250000X-0.250000X0*%
%ADD36RoundRect,0.250000X0.450000X-0.350000X0.450000X0.350000X-0.450000X0.350000X-0.450000X-0.350000X0*%
%ADD37RoundRect,0.250000X-0.250000X0.250000X-0.250000X-0.250000X0.250000X-0.250000X0.250000X0.250000X0*%
%ADD38RoundRect,0.150000X0.150000X-0.825000X0.150000X0.825000X-0.150000X0.825000X-0.150000X-0.825000X0*%
G04 APERTURE END LIST*
D10*
X152980857Y-146266819D02*
X153314190Y-145790628D01*
X153552285Y-146266819D02*
X153552285Y-145266819D01*
X153552285Y-145266819D02*
X153171333Y-145266819D01*
X153171333Y-145266819D02*
X153076095Y-145314438D01*
X153076095Y-145314438D02*
X153028476Y-145362057D01*
X153028476Y-145362057D02*
X152980857Y-145457295D01*
X152980857Y-145457295D02*
X152980857Y-145600152D01*
X152980857Y-145600152D02*
X153028476Y-145695390D01*
X153028476Y-145695390D02*
X153076095Y-145743009D01*
X153076095Y-145743009D02*
X153171333Y-145790628D01*
X153171333Y-145790628D02*
X153552285Y-145790628D01*
X152123714Y-145266819D02*
X152314190Y-145266819D01*
X152314190Y-145266819D02*
X152409428Y-145314438D01*
X152409428Y-145314438D02*
X152457047Y-145362057D01*
X152457047Y-145362057D02*
X152552285Y-145504914D01*
X152552285Y-145504914D02*
X152599904Y-145695390D01*
X152599904Y-145695390D02*
X152599904Y-146076342D01*
X152599904Y-146076342D02*
X152552285Y-146171580D01*
X152552285Y-146171580D02*
X152504666Y-146219200D01*
X152504666Y-146219200D02*
X152409428Y-146266819D01*
X152409428Y-146266819D02*
X152218952Y-146266819D01*
X152218952Y-146266819D02*
X152123714Y-146219200D01*
X152123714Y-146219200D02*
X152076095Y-146171580D01*
X152076095Y-146171580D02*
X152028476Y-146076342D01*
X152028476Y-146076342D02*
X152028476Y-145838247D01*
X152028476Y-145838247D02*
X152076095Y-145743009D01*
X152076095Y-145743009D02*
X152123714Y-145695390D01*
X152123714Y-145695390D02*
X152218952Y-145647771D01*
X152218952Y-145647771D02*
X152409428Y-145647771D01*
X152409428Y-145647771D02*
X152504666Y-145695390D01*
X152504666Y-145695390D02*
X152552285Y-145743009D01*
X152552285Y-145743009D02*
X152599904Y-145838247D01*
X151647523Y-145362057D02*
X151599904Y-145314438D01*
X151599904Y-145314438D02*
X151504666Y-145266819D01*
X151504666Y-145266819D02*
X151266571Y-145266819D01*
X151266571Y-145266819D02*
X151171333Y-145314438D01*
X151171333Y-145314438D02*
X151123714Y-145362057D01*
X151123714Y-145362057D02*
X151076095Y-145457295D01*
X151076095Y-145457295D02*
X151076095Y-145552533D01*
X151076095Y-145552533D02*
X151123714Y-145695390D01*
X151123714Y-145695390D02*
X151695142Y-146266819D01*
X151695142Y-146266819D02*
X151076095Y-146266819D01*
X159711905Y-135090819D02*
X160045238Y-134614628D01*
X160283333Y-135090819D02*
X160283333Y-134090819D01*
X160283333Y-134090819D02*
X159902381Y-134090819D01*
X159902381Y-134090819D02*
X159807143Y-134138438D01*
X159807143Y-134138438D02*
X159759524Y-134186057D01*
X159759524Y-134186057D02*
X159711905Y-134281295D01*
X159711905Y-134281295D02*
X159711905Y-134424152D01*
X159711905Y-134424152D02*
X159759524Y-134519390D01*
X159759524Y-134519390D02*
X159807143Y-134567009D01*
X159807143Y-134567009D02*
X159902381Y-134614628D01*
X159902381Y-134614628D02*
X160283333Y-134614628D01*
X158807143Y-134090819D02*
X159283333Y-134090819D01*
X159283333Y-134090819D02*
X159330952Y-134567009D01*
X159330952Y-134567009D02*
X159283333Y-134519390D01*
X159283333Y-134519390D02*
X159188095Y-134471771D01*
X159188095Y-134471771D02*
X158950000Y-134471771D01*
X158950000Y-134471771D02*
X158854762Y-134519390D01*
X158854762Y-134519390D02*
X158807143Y-134567009D01*
X158807143Y-134567009D02*
X158759524Y-134662247D01*
X158759524Y-134662247D02*
X158759524Y-134900342D01*
X158759524Y-134900342D02*
X158807143Y-134995580D01*
X158807143Y-134995580D02*
X158854762Y-135043200D01*
X158854762Y-135043200D02*
X158950000Y-135090819D01*
X158950000Y-135090819D02*
X159188095Y-135090819D01*
X159188095Y-135090819D02*
X159283333Y-135043200D01*
X159283333Y-135043200D02*
X159330952Y-134995580D01*
X158188095Y-134519390D02*
X158283333Y-134471771D01*
X158283333Y-134471771D02*
X158330952Y-134424152D01*
X158330952Y-134424152D02*
X158378571Y-134328914D01*
X158378571Y-134328914D02*
X158378571Y-134281295D01*
X158378571Y-134281295D02*
X158330952Y-134186057D01*
X158330952Y-134186057D02*
X158283333Y-134138438D01*
X158283333Y-134138438D02*
X158188095Y-134090819D01*
X158188095Y-134090819D02*
X157997619Y-134090819D01*
X157997619Y-134090819D02*
X157902381Y-134138438D01*
X157902381Y-134138438D02*
X157854762Y-134186057D01*
X157854762Y-134186057D02*
X157807143Y-134281295D01*
X157807143Y-134281295D02*
X157807143Y-134328914D01*
X157807143Y-134328914D02*
X157854762Y-134424152D01*
X157854762Y-134424152D02*
X157902381Y-134471771D01*
X157902381Y-134471771D02*
X157997619Y-134519390D01*
X157997619Y-134519390D02*
X158188095Y-134519390D01*
X158188095Y-134519390D02*
X158283333Y-134567009D01*
X158283333Y-134567009D02*
X158330952Y-134614628D01*
X158330952Y-134614628D02*
X158378571Y-134709866D01*
X158378571Y-134709866D02*
X158378571Y-134900342D01*
X158378571Y-134900342D02*
X158330952Y-134995580D01*
X158330952Y-134995580D02*
X158283333Y-135043200D01*
X158283333Y-135043200D02*
X158188095Y-135090819D01*
X158188095Y-135090819D02*
X157997619Y-135090819D01*
X157997619Y-135090819D02*
X157902381Y-135043200D01*
X157902381Y-135043200D02*
X157854762Y-134995580D01*
X157854762Y-134995580D02*
X157807143Y-134900342D01*
X157807143Y-134900342D02*
X157807143Y-134709866D01*
X157807143Y-134709866D02*
X157854762Y-134614628D01*
X157854762Y-134614628D02*
X157902381Y-134567009D01*
X157902381Y-134567009D02*
X157997619Y-134519390D01*
X159711905Y-140678819D02*
X160045238Y-140202628D01*
X160283333Y-140678819D02*
X160283333Y-139678819D01*
X160283333Y-139678819D02*
X159902381Y-139678819D01*
X159902381Y-139678819D02*
X159807143Y-139726438D01*
X159807143Y-139726438D02*
X159759524Y-139774057D01*
X159759524Y-139774057D02*
X159711905Y-139869295D01*
X159711905Y-139869295D02*
X159711905Y-140012152D01*
X159711905Y-140012152D02*
X159759524Y-140107390D01*
X159759524Y-140107390D02*
X159807143Y-140155009D01*
X159807143Y-140155009D02*
X159902381Y-140202628D01*
X159902381Y-140202628D02*
X160283333Y-140202628D01*
X158854762Y-139678819D02*
X159045238Y-139678819D01*
X159045238Y-139678819D02*
X159140476Y-139726438D01*
X159140476Y-139726438D02*
X159188095Y-139774057D01*
X159188095Y-139774057D02*
X159283333Y-139916914D01*
X159283333Y-139916914D02*
X159330952Y-140107390D01*
X159330952Y-140107390D02*
X159330952Y-140488342D01*
X159330952Y-140488342D02*
X159283333Y-140583580D01*
X159283333Y-140583580D02*
X159235714Y-140631200D01*
X159235714Y-140631200D02*
X159140476Y-140678819D01*
X159140476Y-140678819D02*
X158950000Y-140678819D01*
X158950000Y-140678819D02*
X158854762Y-140631200D01*
X158854762Y-140631200D02*
X158807143Y-140583580D01*
X158807143Y-140583580D02*
X158759524Y-140488342D01*
X158759524Y-140488342D02*
X158759524Y-140250247D01*
X158759524Y-140250247D02*
X158807143Y-140155009D01*
X158807143Y-140155009D02*
X158854762Y-140107390D01*
X158854762Y-140107390D02*
X158950000Y-140059771D01*
X158950000Y-140059771D02*
X159140476Y-140059771D01*
X159140476Y-140059771D02*
X159235714Y-140107390D01*
X159235714Y-140107390D02*
X159283333Y-140155009D01*
X159283333Y-140155009D02*
X159330952Y-140250247D01*
X158426190Y-139678819D02*
X157807143Y-139678819D01*
X157807143Y-139678819D02*
X158140476Y-140059771D01*
X158140476Y-140059771D02*
X157997619Y-140059771D01*
X157997619Y-140059771D02*
X157902381Y-140107390D01*
X157902381Y-140107390D02*
X157854762Y-140155009D01*
X157854762Y-140155009D02*
X157807143Y-140250247D01*
X157807143Y-140250247D02*
X157807143Y-140488342D01*
X157807143Y-140488342D02*
X157854762Y-140583580D01*
X157854762Y-140583580D02*
X157902381Y-140631200D01*
X157902381Y-140631200D02*
X157997619Y-140678819D01*
X157997619Y-140678819D02*
X158283333Y-140678819D01*
X158283333Y-140678819D02*
X158378571Y-140631200D01*
X158378571Y-140631200D02*
X158426190Y-140583580D01*
X152853857Y-135090819D02*
X153187190Y-134614628D01*
X153425285Y-135090819D02*
X153425285Y-134090819D01*
X153425285Y-134090819D02*
X153044333Y-134090819D01*
X153044333Y-134090819D02*
X152949095Y-134138438D01*
X152949095Y-134138438D02*
X152901476Y-134186057D01*
X152901476Y-134186057D02*
X152853857Y-134281295D01*
X152853857Y-134281295D02*
X152853857Y-134424152D01*
X152853857Y-134424152D02*
X152901476Y-134519390D01*
X152901476Y-134519390D02*
X152949095Y-134567009D01*
X152949095Y-134567009D02*
X153044333Y-134614628D01*
X153044333Y-134614628D02*
X153425285Y-134614628D01*
X151949095Y-134090819D02*
X152425285Y-134090819D01*
X152425285Y-134090819D02*
X152472904Y-134567009D01*
X152472904Y-134567009D02*
X152425285Y-134519390D01*
X152425285Y-134519390D02*
X152330047Y-134471771D01*
X152330047Y-134471771D02*
X152091952Y-134471771D01*
X152091952Y-134471771D02*
X151996714Y-134519390D01*
X151996714Y-134519390D02*
X151949095Y-134567009D01*
X151949095Y-134567009D02*
X151901476Y-134662247D01*
X151901476Y-134662247D02*
X151901476Y-134900342D01*
X151901476Y-134900342D02*
X151949095Y-134995580D01*
X151949095Y-134995580D02*
X151996714Y-135043200D01*
X151996714Y-135043200D02*
X152091952Y-135090819D01*
X152091952Y-135090819D02*
X152330047Y-135090819D01*
X152330047Y-135090819D02*
X152425285Y-135043200D01*
X152425285Y-135043200D02*
X152472904Y-134995580D01*
X151425285Y-135090819D02*
X151234809Y-135090819D01*
X151234809Y-135090819D02*
X151139571Y-135043200D01*
X151139571Y-135043200D02*
X151091952Y-134995580D01*
X151091952Y-134995580D02*
X150996714Y-134852723D01*
X150996714Y-134852723D02*
X150949095Y-134662247D01*
X150949095Y-134662247D02*
X150949095Y-134281295D01*
X150949095Y-134281295D02*
X150996714Y-134186057D01*
X150996714Y-134186057D02*
X151044333Y-134138438D01*
X151044333Y-134138438D02*
X151139571Y-134090819D01*
X151139571Y-134090819D02*
X151330047Y-134090819D01*
X151330047Y-134090819D02*
X151425285Y-134138438D01*
X151425285Y-134138438D02*
X151472904Y-134186057D01*
X151472904Y-134186057D02*
X151520523Y-134281295D01*
X151520523Y-134281295D02*
X151520523Y-134519390D01*
X151520523Y-134519390D02*
X151472904Y-134614628D01*
X151472904Y-134614628D02*
X151425285Y-134662247D01*
X151425285Y-134662247D02*
X151330047Y-134709866D01*
X151330047Y-134709866D02*
X151139571Y-134709866D01*
X151139571Y-134709866D02*
X151044333Y-134662247D01*
X151044333Y-134662247D02*
X150996714Y-134614628D01*
X150996714Y-134614628D02*
X150949095Y-134519390D01*
X160220819Y-79526142D02*
X159744628Y-79192809D01*
X160220819Y-78954714D02*
X159220819Y-78954714D01*
X159220819Y-78954714D02*
X159220819Y-79335666D01*
X159220819Y-79335666D02*
X159268438Y-79430904D01*
X159268438Y-79430904D02*
X159316057Y-79478523D01*
X159316057Y-79478523D02*
X159411295Y-79526142D01*
X159411295Y-79526142D02*
X159554152Y-79526142D01*
X159554152Y-79526142D02*
X159649390Y-79478523D01*
X159649390Y-79478523D02*
X159697009Y-79430904D01*
X159697009Y-79430904D02*
X159744628Y-79335666D01*
X159744628Y-79335666D02*
X159744628Y-78954714D01*
X159220819Y-80430904D02*
X159220819Y-79954714D01*
X159220819Y-79954714D02*
X159697009Y-79907095D01*
X159697009Y-79907095D02*
X159649390Y-79954714D01*
X159649390Y-79954714D02*
X159601771Y-80049952D01*
X159601771Y-80049952D02*
X159601771Y-80288047D01*
X159601771Y-80288047D02*
X159649390Y-80383285D01*
X159649390Y-80383285D02*
X159697009Y-80430904D01*
X159697009Y-80430904D02*
X159792247Y-80478523D01*
X159792247Y-80478523D02*
X160030342Y-80478523D01*
X160030342Y-80478523D02*
X160125580Y-80430904D01*
X160125580Y-80430904D02*
X160173200Y-80383285D01*
X160173200Y-80383285D02*
X160220819Y-80288047D01*
X160220819Y-80288047D02*
X160220819Y-80049952D01*
X160220819Y-80049952D02*
X160173200Y-79954714D01*
X160173200Y-79954714D02*
X160125580Y-79907095D01*
X159316057Y-80859476D02*
X159268438Y-80907095D01*
X159268438Y-80907095D02*
X159220819Y-81002333D01*
X159220819Y-81002333D02*
X159220819Y-81240428D01*
X159220819Y-81240428D02*
X159268438Y-81335666D01*
X159268438Y-81335666D02*
X159316057Y-81383285D01*
X159316057Y-81383285D02*
X159411295Y-81430904D01*
X159411295Y-81430904D02*
X159506533Y-81430904D01*
X159506533Y-81430904D02*
X159649390Y-81383285D01*
X159649390Y-81383285D02*
X160220819Y-80811857D01*
X160220819Y-80811857D02*
X160220819Y-81430904D01*
X172920819Y-80129142D02*
X172444628Y-79795809D01*
X172920819Y-79557714D02*
X171920819Y-79557714D01*
X171920819Y-79557714D02*
X171920819Y-79938666D01*
X171920819Y-79938666D02*
X171968438Y-80033904D01*
X171968438Y-80033904D02*
X172016057Y-80081523D01*
X172016057Y-80081523D02*
X172111295Y-80129142D01*
X172111295Y-80129142D02*
X172254152Y-80129142D01*
X172254152Y-80129142D02*
X172349390Y-80081523D01*
X172349390Y-80081523D02*
X172397009Y-80033904D01*
X172397009Y-80033904D02*
X172444628Y-79938666D01*
X172444628Y-79938666D02*
X172444628Y-79557714D01*
X171920819Y-81033904D02*
X171920819Y-80557714D01*
X171920819Y-80557714D02*
X172397009Y-80510095D01*
X172397009Y-80510095D02*
X172349390Y-80557714D01*
X172349390Y-80557714D02*
X172301771Y-80652952D01*
X172301771Y-80652952D02*
X172301771Y-80891047D01*
X172301771Y-80891047D02*
X172349390Y-80986285D01*
X172349390Y-80986285D02*
X172397009Y-81033904D01*
X172397009Y-81033904D02*
X172492247Y-81081523D01*
X172492247Y-81081523D02*
X172730342Y-81081523D01*
X172730342Y-81081523D02*
X172825580Y-81033904D01*
X172825580Y-81033904D02*
X172873200Y-80986285D01*
X172873200Y-80986285D02*
X172920819Y-80891047D01*
X172920819Y-80891047D02*
X172920819Y-80652952D01*
X172920819Y-80652952D02*
X172873200Y-80557714D01*
X172873200Y-80557714D02*
X172825580Y-80510095D01*
X171920819Y-81700571D02*
X171920819Y-81795809D01*
X171920819Y-81795809D02*
X171968438Y-81891047D01*
X171968438Y-81891047D02*
X172016057Y-81938666D01*
X172016057Y-81938666D02*
X172111295Y-81986285D01*
X172111295Y-81986285D02*
X172301771Y-82033904D01*
X172301771Y-82033904D02*
X172539866Y-82033904D01*
X172539866Y-82033904D02*
X172730342Y-81986285D01*
X172730342Y-81986285D02*
X172825580Y-81938666D01*
X172825580Y-81938666D02*
X172873200Y-81891047D01*
X172873200Y-81891047D02*
X172920819Y-81795809D01*
X172920819Y-81795809D02*
X172920819Y-81700571D01*
X172920819Y-81700571D02*
X172873200Y-81605333D01*
X172873200Y-81605333D02*
X172825580Y-81557714D01*
X172825580Y-81557714D02*
X172730342Y-81510095D01*
X172730342Y-81510095D02*
X172539866Y-81462476D01*
X172539866Y-81462476D02*
X172301771Y-81462476D01*
X172301771Y-81462476D02*
X172111295Y-81510095D01*
X172111295Y-81510095D02*
X172016057Y-81557714D01*
X172016057Y-81557714D02*
X171968438Y-81605333D01*
X171968438Y-81605333D02*
X171920819Y-81700571D01*
X176625238Y-128058057D02*
X176720476Y-128010438D01*
X176720476Y-128010438D02*
X176815714Y-127915200D01*
X176815714Y-127915200D02*
X176958571Y-127772342D01*
X176958571Y-127772342D02*
X177053809Y-127724723D01*
X177053809Y-127724723D02*
X177149047Y-127724723D01*
X177101428Y-127962819D02*
X177196666Y-127915200D01*
X177196666Y-127915200D02*
X177291904Y-127819961D01*
X177291904Y-127819961D02*
X177339523Y-127629485D01*
X177339523Y-127629485D02*
X177339523Y-127296152D01*
X177339523Y-127296152D02*
X177291904Y-127105676D01*
X177291904Y-127105676D02*
X177196666Y-127010438D01*
X177196666Y-127010438D02*
X177101428Y-126962819D01*
X177101428Y-126962819D02*
X176910952Y-126962819D01*
X176910952Y-126962819D02*
X176815714Y-127010438D01*
X176815714Y-127010438D02*
X176720476Y-127105676D01*
X176720476Y-127105676D02*
X176672857Y-127296152D01*
X176672857Y-127296152D02*
X176672857Y-127629485D01*
X176672857Y-127629485D02*
X176720476Y-127819961D01*
X176720476Y-127819961D02*
X176815714Y-127915200D01*
X176815714Y-127915200D02*
X176910952Y-127962819D01*
X176910952Y-127962819D02*
X177101428Y-127962819D01*
X175768095Y-126962819D02*
X176244285Y-126962819D01*
X176244285Y-126962819D02*
X176291904Y-127439009D01*
X176291904Y-127439009D02*
X176244285Y-127391390D01*
X176244285Y-127391390D02*
X176149047Y-127343771D01*
X176149047Y-127343771D02*
X175910952Y-127343771D01*
X175910952Y-127343771D02*
X175815714Y-127391390D01*
X175815714Y-127391390D02*
X175768095Y-127439009D01*
X175768095Y-127439009D02*
X175720476Y-127534247D01*
X175720476Y-127534247D02*
X175720476Y-127772342D01*
X175720476Y-127772342D02*
X175768095Y-127867580D01*
X175768095Y-127867580D02*
X175815714Y-127915200D01*
X175815714Y-127915200D02*
X175910952Y-127962819D01*
X175910952Y-127962819D02*
X176149047Y-127962819D01*
X176149047Y-127962819D02*
X176244285Y-127915200D01*
X176244285Y-127915200D02*
X176291904Y-127867580D01*
X176040819Y-113037905D02*
X175040819Y-113037905D01*
X175040819Y-113037905D02*
X175040819Y-113276000D01*
X175040819Y-113276000D02*
X175088438Y-113418857D01*
X175088438Y-113418857D02*
X175183676Y-113514095D01*
X175183676Y-113514095D02*
X175278914Y-113561714D01*
X175278914Y-113561714D02*
X175469390Y-113609333D01*
X175469390Y-113609333D02*
X175612247Y-113609333D01*
X175612247Y-113609333D02*
X175802723Y-113561714D01*
X175802723Y-113561714D02*
X175897961Y-113514095D01*
X175897961Y-113514095D02*
X175993200Y-113418857D01*
X175993200Y-113418857D02*
X176040819Y-113276000D01*
X176040819Y-113276000D02*
X176040819Y-113037905D01*
X175136057Y-113990286D02*
X175088438Y-114037905D01*
X175088438Y-114037905D02*
X175040819Y-114133143D01*
X175040819Y-114133143D02*
X175040819Y-114371238D01*
X175040819Y-114371238D02*
X175088438Y-114466476D01*
X175088438Y-114466476D02*
X175136057Y-114514095D01*
X175136057Y-114514095D02*
X175231295Y-114561714D01*
X175231295Y-114561714D02*
X175326533Y-114561714D01*
X175326533Y-114561714D02*
X175469390Y-114514095D01*
X175469390Y-114514095D02*
X176040819Y-113942667D01*
X176040819Y-113942667D02*
X176040819Y-114561714D01*
X176371238Y-87672057D02*
X176466476Y-87624438D01*
X176466476Y-87624438D02*
X176561714Y-87529200D01*
X176561714Y-87529200D02*
X176704571Y-87386342D01*
X176704571Y-87386342D02*
X176799809Y-87338723D01*
X176799809Y-87338723D02*
X176895047Y-87338723D01*
X176847428Y-87576819D02*
X176942666Y-87529200D01*
X176942666Y-87529200D02*
X177037904Y-87433961D01*
X177037904Y-87433961D02*
X177085523Y-87243485D01*
X177085523Y-87243485D02*
X177085523Y-86910152D01*
X177085523Y-86910152D02*
X177037904Y-86719676D01*
X177037904Y-86719676D02*
X176942666Y-86624438D01*
X176942666Y-86624438D02*
X176847428Y-86576819D01*
X176847428Y-86576819D02*
X176656952Y-86576819D01*
X176656952Y-86576819D02*
X176561714Y-86624438D01*
X176561714Y-86624438D02*
X176466476Y-86719676D01*
X176466476Y-86719676D02*
X176418857Y-86910152D01*
X176418857Y-86910152D02*
X176418857Y-87243485D01*
X176418857Y-87243485D02*
X176466476Y-87433961D01*
X176466476Y-87433961D02*
X176561714Y-87529200D01*
X176561714Y-87529200D02*
X176656952Y-87576819D01*
X176656952Y-87576819D02*
X176847428Y-87576819D01*
X176037904Y-86672057D02*
X175990285Y-86624438D01*
X175990285Y-86624438D02*
X175895047Y-86576819D01*
X175895047Y-86576819D02*
X175656952Y-86576819D01*
X175656952Y-86576819D02*
X175561714Y-86624438D01*
X175561714Y-86624438D02*
X175514095Y-86672057D01*
X175514095Y-86672057D02*
X175466476Y-86767295D01*
X175466476Y-86767295D02*
X175466476Y-86862533D01*
X175466476Y-86862533D02*
X175514095Y-87005390D01*
X175514095Y-87005390D02*
X176085523Y-87576819D01*
X176085523Y-87576819D02*
X175466476Y-87576819D01*
X176371238Y-108246057D02*
X176466476Y-108198438D01*
X176466476Y-108198438D02*
X176561714Y-108103200D01*
X176561714Y-108103200D02*
X176704571Y-107960342D01*
X176704571Y-107960342D02*
X176799809Y-107912723D01*
X176799809Y-107912723D02*
X176895047Y-107912723D01*
X176847428Y-108150819D02*
X176942666Y-108103200D01*
X176942666Y-108103200D02*
X177037904Y-108007961D01*
X177037904Y-108007961D02*
X177085523Y-107817485D01*
X177085523Y-107817485D02*
X177085523Y-107484152D01*
X177085523Y-107484152D02*
X177037904Y-107293676D01*
X177037904Y-107293676D02*
X176942666Y-107198438D01*
X176942666Y-107198438D02*
X176847428Y-107150819D01*
X176847428Y-107150819D02*
X176656952Y-107150819D01*
X176656952Y-107150819D02*
X176561714Y-107198438D01*
X176561714Y-107198438D02*
X176466476Y-107293676D01*
X176466476Y-107293676D02*
X176418857Y-107484152D01*
X176418857Y-107484152D02*
X176418857Y-107817485D01*
X176418857Y-107817485D02*
X176466476Y-108007961D01*
X176466476Y-108007961D02*
X176561714Y-108103200D01*
X176561714Y-108103200D02*
X176656952Y-108150819D01*
X176656952Y-108150819D02*
X176847428Y-108150819D01*
X175561714Y-107484152D02*
X175561714Y-108150819D01*
X175799809Y-107103200D02*
X176037904Y-107817485D01*
X176037904Y-107817485D02*
X175418857Y-107817485D01*
X175460819Y-79621142D02*
X174984628Y-79287809D01*
X175460819Y-79049714D02*
X174460819Y-79049714D01*
X174460819Y-79049714D02*
X174460819Y-79430666D01*
X174460819Y-79430666D02*
X174508438Y-79525904D01*
X174508438Y-79525904D02*
X174556057Y-79573523D01*
X174556057Y-79573523D02*
X174651295Y-79621142D01*
X174651295Y-79621142D02*
X174794152Y-79621142D01*
X174794152Y-79621142D02*
X174889390Y-79573523D01*
X174889390Y-79573523D02*
X174937009Y-79525904D01*
X174937009Y-79525904D02*
X174984628Y-79430666D01*
X174984628Y-79430666D02*
X174984628Y-79049714D01*
X174460819Y-80525904D02*
X174460819Y-80049714D01*
X174460819Y-80049714D02*
X174937009Y-80002095D01*
X174937009Y-80002095D02*
X174889390Y-80049714D01*
X174889390Y-80049714D02*
X174841771Y-80144952D01*
X174841771Y-80144952D02*
X174841771Y-80383047D01*
X174841771Y-80383047D02*
X174889390Y-80478285D01*
X174889390Y-80478285D02*
X174937009Y-80525904D01*
X174937009Y-80525904D02*
X175032247Y-80573523D01*
X175032247Y-80573523D02*
X175270342Y-80573523D01*
X175270342Y-80573523D02*
X175365580Y-80525904D01*
X175365580Y-80525904D02*
X175413200Y-80478285D01*
X175413200Y-80478285D02*
X175460819Y-80383047D01*
X175460819Y-80383047D02*
X175460819Y-80144952D01*
X175460819Y-80144952D02*
X175413200Y-80049714D01*
X175413200Y-80049714D02*
X175365580Y-80002095D01*
X175460819Y-81525904D02*
X175460819Y-80954476D01*
X175460819Y-81240190D02*
X174460819Y-81240190D01*
X174460819Y-81240190D02*
X174603676Y-81144952D01*
X174603676Y-81144952D02*
X174698914Y-81049714D01*
X174698914Y-81049714D02*
X174746533Y-80954476D01*
X159584905Y-146393819D02*
X159918238Y-145917628D01*
X160156333Y-146393819D02*
X160156333Y-145393819D01*
X160156333Y-145393819D02*
X159775381Y-145393819D01*
X159775381Y-145393819D02*
X159680143Y-145441438D01*
X159680143Y-145441438D02*
X159632524Y-145489057D01*
X159632524Y-145489057D02*
X159584905Y-145584295D01*
X159584905Y-145584295D02*
X159584905Y-145727152D01*
X159584905Y-145727152D02*
X159632524Y-145822390D01*
X159632524Y-145822390D02*
X159680143Y-145870009D01*
X159680143Y-145870009D02*
X159775381Y-145917628D01*
X159775381Y-145917628D02*
X160156333Y-145917628D01*
X158727762Y-145393819D02*
X158918238Y-145393819D01*
X158918238Y-145393819D02*
X159013476Y-145441438D01*
X159013476Y-145441438D02*
X159061095Y-145489057D01*
X159061095Y-145489057D02*
X159156333Y-145631914D01*
X159156333Y-145631914D02*
X159203952Y-145822390D01*
X159203952Y-145822390D02*
X159203952Y-146203342D01*
X159203952Y-146203342D02*
X159156333Y-146298580D01*
X159156333Y-146298580D02*
X159108714Y-146346200D01*
X159108714Y-146346200D02*
X159013476Y-146393819D01*
X159013476Y-146393819D02*
X158823000Y-146393819D01*
X158823000Y-146393819D02*
X158727762Y-146346200D01*
X158727762Y-146346200D02*
X158680143Y-146298580D01*
X158680143Y-146298580D02*
X158632524Y-146203342D01*
X158632524Y-146203342D02*
X158632524Y-145965247D01*
X158632524Y-145965247D02*
X158680143Y-145870009D01*
X158680143Y-145870009D02*
X158727762Y-145822390D01*
X158727762Y-145822390D02*
X158823000Y-145774771D01*
X158823000Y-145774771D02*
X159013476Y-145774771D01*
X159013476Y-145774771D02*
X159108714Y-145822390D01*
X159108714Y-145822390D02*
X159156333Y-145870009D01*
X159156333Y-145870009D02*
X159203952Y-145965247D01*
X157775381Y-145727152D02*
X157775381Y-146393819D01*
X158013476Y-145346200D02*
X158251571Y-146060485D01*
X158251571Y-146060485D02*
X157632524Y-146060485D01*
X159711905Y-137884819D02*
X160045238Y-137408628D01*
X160283333Y-137884819D02*
X160283333Y-136884819D01*
X160283333Y-136884819D02*
X159902381Y-136884819D01*
X159902381Y-136884819D02*
X159807143Y-136932438D01*
X159807143Y-136932438D02*
X159759524Y-136980057D01*
X159759524Y-136980057D02*
X159711905Y-137075295D01*
X159711905Y-137075295D02*
X159711905Y-137218152D01*
X159711905Y-137218152D02*
X159759524Y-137313390D01*
X159759524Y-137313390D02*
X159807143Y-137361009D01*
X159807143Y-137361009D02*
X159902381Y-137408628D01*
X159902381Y-137408628D02*
X160283333Y-137408628D01*
X158854762Y-136884819D02*
X159045238Y-136884819D01*
X159045238Y-136884819D02*
X159140476Y-136932438D01*
X159140476Y-136932438D02*
X159188095Y-136980057D01*
X159188095Y-136980057D02*
X159283333Y-137122914D01*
X159283333Y-137122914D02*
X159330952Y-137313390D01*
X159330952Y-137313390D02*
X159330952Y-137694342D01*
X159330952Y-137694342D02*
X159283333Y-137789580D01*
X159283333Y-137789580D02*
X159235714Y-137837200D01*
X159235714Y-137837200D02*
X159140476Y-137884819D01*
X159140476Y-137884819D02*
X158950000Y-137884819D01*
X158950000Y-137884819D02*
X158854762Y-137837200D01*
X158854762Y-137837200D02*
X158807143Y-137789580D01*
X158807143Y-137789580D02*
X158759524Y-137694342D01*
X158759524Y-137694342D02*
X158759524Y-137456247D01*
X158759524Y-137456247D02*
X158807143Y-137361009D01*
X158807143Y-137361009D02*
X158854762Y-137313390D01*
X158854762Y-137313390D02*
X158950000Y-137265771D01*
X158950000Y-137265771D02*
X159140476Y-137265771D01*
X159140476Y-137265771D02*
X159235714Y-137313390D01*
X159235714Y-137313390D02*
X159283333Y-137361009D01*
X159283333Y-137361009D02*
X159330952Y-137456247D01*
X158140476Y-136884819D02*
X158045238Y-136884819D01*
X158045238Y-136884819D02*
X157950000Y-136932438D01*
X157950000Y-136932438D02*
X157902381Y-136980057D01*
X157902381Y-136980057D02*
X157854762Y-137075295D01*
X157854762Y-137075295D02*
X157807143Y-137265771D01*
X157807143Y-137265771D02*
X157807143Y-137503866D01*
X157807143Y-137503866D02*
X157854762Y-137694342D01*
X157854762Y-137694342D02*
X157902381Y-137789580D01*
X157902381Y-137789580D02*
X157950000Y-137837200D01*
X157950000Y-137837200D02*
X158045238Y-137884819D01*
X158045238Y-137884819D02*
X158140476Y-137884819D01*
X158140476Y-137884819D02*
X158235714Y-137837200D01*
X158235714Y-137837200D02*
X158283333Y-137789580D01*
X158283333Y-137789580D02*
X158330952Y-137694342D01*
X158330952Y-137694342D02*
X158378571Y-137503866D01*
X158378571Y-137503866D02*
X158378571Y-137265771D01*
X158378571Y-137265771D02*
X158330952Y-137075295D01*
X158330952Y-137075295D02*
X158283333Y-136980057D01*
X158283333Y-136980057D02*
X158235714Y-136932438D01*
X158235714Y-136932438D02*
X158140476Y-136884819D01*
X187906819Y-70635905D02*
X186906819Y-70635905D01*
X186906819Y-70635905D02*
X186906819Y-70874000D01*
X186906819Y-70874000D02*
X186954438Y-71016857D01*
X186954438Y-71016857D02*
X187049676Y-71112095D01*
X187049676Y-71112095D02*
X187144914Y-71159714D01*
X187144914Y-71159714D02*
X187335390Y-71207333D01*
X187335390Y-71207333D02*
X187478247Y-71207333D01*
X187478247Y-71207333D02*
X187668723Y-71159714D01*
X187668723Y-71159714D02*
X187763961Y-71112095D01*
X187763961Y-71112095D02*
X187859200Y-71016857D01*
X187859200Y-71016857D02*
X187906819Y-70874000D01*
X187906819Y-70874000D02*
X187906819Y-70635905D01*
X187906819Y-72159714D02*
X187906819Y-71588286D01*
X187906819Y-71874000D02*
X186906819Y-71874000D01*
X186906819Y-71874000D02*
X187049676Y-71778762D01*
X187049676Y-71778762D02*
X187144914Y-71683524D01*
X187144914Y-71683524D02*
X187192533Y-71588286D01*
X176040819Y-132865905D02*
X175040819Y-132865905D01*
X175040819Y-132865905D02*
X175040819Y-133104000D01*
X175040819Y-133104000D02*
X175088438Y-133246857D01*
X175088438Y-133246857D02*
X175183676Y-133342095D01*
X175183676Y-133342095D02*
X175278914Y-133389714D01*
X175278914Y-133389714D02*
X175469390Y-133437333D01*
X175469390Y-133437333D02*
X175612247Y-133437333D01*
X175612247Y-133437333D02*
X175802723Y-133389714D01*
X175802723Y-133389714D02*
X175897961Y-133342095D01*
X175897961Y-133342095D02*
X175993200Y-133246857D01*
X175993200Y-133246857D02*
X176040819Y-133104000D01*
X176040819Y-133104000D02*
X176040819Y-132865905D01*
X175040819Y-134342095D02*
X175040819Y-133865905D01*
X175040819Y-133865905D02*
X175517009Y-133818286D01*
X175517009Y-133818286D02*
X175469390Y-133865905D01*
X175469390Y-133865905D02*
X175421771Y-133961143D01*
X175421771Y-133961143D02*
X175421771Y-134199238D01*
X175421771Y-134199238D02*
X175469390Y-134294476D01*
X175469390Y-134294476D02*
X175517009Y-134342095D01*
X175517009Y-134342095D02*
X175612247Y-134389714D01*
X175612247Y-134389714D02*
X175850342Y-134389714D01*
X175850342Y-134389714D02*
X175945580Y-134342095D01*
X175945580Y-134342095D02*
X175993200Y-134294476D01*
X175993200Y-134294476D02*
X176040819Y-134199238D01*
X176040819Y-134199238D02*
X176040819Y-133961143D01*
X176040819Y-133961143D02*
X175993200Y-133865905D01*
X175993200Y-133865905D02*
X175945580Y-133818286D01*
X162760819Y-79526142D02*
X162284628Y-79192809D01*
X162760819Y-78954714D02*
X161760819Y-78954714D01*
X161760819Y-78954714D02*
X161760819Y-79335666D01*
X161760819Y-79335666D02*
X161808438Y-79430904D01*
X161808438Y-79430904D02*
X161856057Y-79478523D01*
X161856057Y-79478523D02*
X161951295Y-79526142D01*
X161951295Y-79526142D02*
X162094152Y-79526142D01*
X162094152Y-79526142D02*
X162189390Y-79478523D01*
X162189390Y-79478523D02*
X162237009Y-79430904D01*
X162237009Y-79430904D02*
X162284628Y-79335666D01*
X162284628Y-79335666D02*
X162284628Y-78954714D01*
X161760819Y-80430904D02*
X161760819Y-79954714D01*
X161760819Y-79954714D02*
X162237009Y-79907095D01*
X162237009Y-79907095D02*
X162189390Y-79954714D01*
X162189390Y-79954714D02*
X162141771Y-80049952D01*
X162141771Y-80049952D02*
X162141771Y-80288047D01*
X162141771Y-80288047D02*
X162189390Y-80383285D01*
X162189390Y-80383285D02*
X162237009Y-80430904D01*
X162237009Y-80430904D02*
X162332247Y-80478523D01*
X162332247Y-80478523D02*
X162570342Y-80478523D01*
X162570342Y-80478523D02*
X162665580Y-80430904D01*
X162665580Y-80430904D02*
X162713200Y-80383285D01*
X162713200Y-80383285D02*
X162760819Y-80288047D01*
X162760819Y-80288047D02*
X162760819Y-80049952D01*
X162760819Y-80049952D02*
X162713200Y-79954714D01*
X162713200Y-79954714D02*
X162665580Y-79907095D01*
X161760819Y-80811857D02*
X161760819Y-81430904D01*
X161760819Y-81430904D02*
X162141771Y-81097571D01*
X162141771Y-81097571D02*
X162141771Y-81240428D01*
X162141771Y-81240428D02*
X162189390Y-81335666D01*
X162189390Y-81335666D02*
X162237009Y-81383285D01*
X162237009Y-81383285D02*
X162332247Y-81430904D01*
X162332247Y-81430904D02*
X162570342Y-81430904D01*
X162570342Y-81430904D02*
X162665580Y-81383285D01*
X162665580Y-81383285D02*
X162713200Y-81335666D01*
X162713200Y-81335666D02*
X162760819Y-81240428D01*
X162760819Y-81240428D02*
X162760819Y-80954714D01*
X162760819Y-80954714D02*
X162713200Y-80859476D01*
X162713200Y-80859476D02*
X162665580Y-80811857D01*
X172920819Y-99941142D02*
X172444628Y-99607809D01*
X172920819Y-99369714D02*
X171920819Y-99369714D01*
X171920819Y-99369714D02*
X171920819Y-99750666D01*
X171920819Y-99750666D02*
X171968438Y-99845904D01*
X171968438Y-99845904D02*
X172016057Y-99893523D01*
X172016057Y-99893523D02*
X172111295Y-99941142D01*
X172111295Y-99941142D02*
X172254152Y-99941142D01*
X172254152Y-99941142D02*
X172349390Y-99893523D01*
X172349390Y-99893523D02*
X172397009Y-99845904D01*
X172397009Y-99845904D02*
X172444628Y-99750666D01*
X172444628Y-99750666D02*
X172444628Y-99369714D01*
X171920819Y-100845904D02*
X171920819Y-100369714D01*
X171920819Y-100369714D02*
X172397009Y-100322095D01*
X172397009Y-100322095D02*
X172349390Y-100369714D01*
X172349390Y-100369714D02*
X172301771Y-100464952D01*
X172301771Y-100464952D02*
X172301771Y-100703047D01*
X172301771Y-100703047D02*
X172349390Y-100798285D01*
X172349390Y-100798285D02*
X172397009Y-100845904D01*
X172397009Y-100845904D02*
X172492247Y-100893523D01*
X172492247Y-100893523D02*
X172730342Y-100893523D01*
X172730342Y-100893523D02*
X172825580Y-100845904D01*
X172825580Y-100845904D02*
X172873200Y-100798285D01*
X172873200Y-100798285D02*
X172920819Y-100703047D01*
X172920819Y-100703047D02*
X172920819Y-100464952D01*
X172920819Y-100464952D02*
X172873200Y-100369714D01*
X172873200Y-100369714D02*
X172825580Y-100322095D01*
X172254152Y-101750666D02*
X172920819Y-101750666D01*
X171873200Y-101512571D02*
X172587485Y-101274476D01*
X172587485Y-101274476D02*
X172587485Y-101893523D01*
X187160819Y-79663905D02*
X187970342Y-79663905D01*
X187970342Y-79663905D02*
X188065580Y-79711524D01*
X188065580Y-79711524D02*
X188113200Y-79759143D01*
X188113200Y-79759143D02*
X188160819Y-79854381D01*
X188160819Y-79854381D02*
X188160819Y-80044857D01*
X188160819Y-80044857D02*
X188113200Y-80140095D01*
X188113200Y-80140095D02*
X188065580Y-80187714D01*
X188065580Y-80187714D02*
X187970342Y-80235333D01*
X187970342Y-80235333D02*
X187160819Y-80235333D01*
X188160819Y-81235333D02*
X188160819Y-80663905D01*
X188160819Y-80949619D02*
X187160819Y-80949619D01*
X187160819Y-80949619D02*
X187303676Y-80854381D01*
X187303676Y-80854381D02*
X187398914Y-80759143D01*
X187398914Y-80759143D02*
X187446533Y-80663905D01*
X187160819Y-81854381D02*
X187160819Y-81949619D01*
X187160819Y-81949619D02*
X187208438Y-82044857D01*
X187208438Y-82044857D02*
X187256057Y-82092476D01*
X187256057Y-82092476D02*
X187351295Y-82140095D01*
X187351295Y-82140095D02*
X187541771Y-82187714D01*
X187541771Y-82187714D02*
X187779866Y-82187714D01*
X187779866Y-82187714D02*
X187970342Y-82140095D01*
X187970342Y-82140095D02*
X188065580Y-82092476D01*
X188065580Y-82092476D02*
X188113200Y-82044857D01*
X188113200Y-82044857D02*
X188160819Y-81949619D01*
X188160819Y-81949619D02*
X188160819Y-81854381D01*
X188160819Y-81854381D02*
X188113200Y-81759143D01*
X188113200Y-81759143D02*
X188065580Y-81711524D01*
X188065580Y-81711524D02*
X187970342Y-81663905D01*
X187970342Y-81663905D02*
X187779866Y-81616286D01*
X187779866Y-81616286D02*
X187541771Y-81616286D01*
X187541771Y-81616286D02*
X187351295Y-81663905D01*
X187351295Y-81663905D02*
X187256057Y-81711524D01*
X187256057Y-81711524D02*
X187208438Y-81759143D01*
X187208438Y-81759143D02*
X187160819Y-81854381D01*
X170888819Y-123817142D02*
X170412628Y-123483809D01*
X170888819Y-123245714D02*
X169888819Y-123245714D01*
X169888819Y-123245714D02*
X169888819Y-123626666D01*
X169888819Y-123626666D02*
X169936438Y-123721904D01*
X169936438Y-123721904D02*
X169984057Y-123769523D01*
X169984057Y-123769523D02*
X170079295Y-123817142D01*
X170079295Y-123817142D02*
X170222152Y-123817142D01*
X170222152Y-123817142D02*
X170317390Y-123769523D01*
X170317390Y-123769523D02*
X170365009Y-123721904D01*
X170365009Y-123721904D02*
X170412628Y-123626666D01*
X170412628Y-123626666D02*
X170412628Y-123245714D01*
X169888819Y-124721904D02*
X169888819Y-124245714D01*
X169888819Y-124245714D02*
X170365009Y-124198095D01*
X170365009Y-124198095D02*
X170317390Y-124245714D01*
X170317390Y-124245714D02*
X170269771Y-124340952D01*
X170269771Y-124340952D02*
X170269771Y-124579047D01*
X170269771Y-124579047D02*
X170317390Y-124674285D01*
X170317390Y-124674285D02*
X170365009Y-124721904D01*
X170365009Y-124721904D02*
X170460247Y-124769523D01*
X170460247Y-124769523D02*
X170698342Y-124769523D01*
X170698342Y-124769523D02*
X170793580Y-124721904D01*
X170793580Y-124721904D02*
X170841200Y-124674285D01*
X170841200Y-124674285D02*
X170888819Y-124579047D01*
X170888819Y-124579047D02*
X170888819Y-124340952D01*
X170888819Y-124340952D02*
X170841200Y-124245714D01*
X170841200Y-124245714D02*
X170793580Y-124198095D01*
X169888819Y-125626666D02*
X169888819Y-125436190D01*
X169888819Y-125436190D02*
X169936438Y-125340952D01*
X169936438Y-125340952D02*
X169984057Y-125293333D01*
X169984057Y-125293333D02*
X170126914Y-125198095D01*
X170126914Y-125198095D02*
X170317390Y-125150476D01*
X170317390Y-125150476D02*
X170698342Y-125150476D01*
X170698342Y-125150476D02*
X170793580Y-125198095D01*
X170793580Y-125198095D02*
X170841200Y-125245714D01*
X170841200Y-125245714D02*
X170888819Y-125340952D01*
X170888819Y-125340952D02*
X170888819Y-125531428D01*
X170888819Y-125531428D02*
X170841200Y-125626666D01*
X170841200Y-125626666D02*
X170793580Y-125674285D01*
X170793580Y-125674285D02*
X170698342Y-125721904D01*
X170698342Y-125721904D02*
X170460247Y-125721904D01*
X170460247Y-125721904D02*
X170365009Y-125674285D01*
X170365009Y-125674285D02*
X170317390Y-125626666D01*
X170317390Y-125626666D02*
X170269771Y-125531428D01*
X170269771Y-125531428D02*
X170269771Y-125340952D01*
X170269771Y-125340952D02*
X170317390Y-125245714D01*
X170317390Y-125245714D02*
X170365009Y-125198095D01*
X170365009Y-125198095D02*
X170460247Y-125150476D01*
X152853857Y-137884819D02*
X153187190Y-137408628D01*
X153425285Y-137884819D02*
X153425285Y-136884819D01*
X153425285Y-136884819D02*
X153044333Y-136884819D01*
X153044333Y-136884819D02*
X152949095Y-136932438D01*
X152949095Y-136932438D02*
X152901476Y-136980057D01*
X152901476Y-136980057D02*
X152853857Y-137075295D01*
X152853857Y-137075295D02*
X152853857Y-137218152D01*
X152853857Y-137218152D02*
X152901476Y-137313390D01*
X152901476Y-137313390D02*
X152949095Y-137361009D01*
X152949095Y-137361009D02*
X153044333Y-137408628D01*
X153044333Y-137408628D02*
X153425285Y-137408628D01*
X151996714Y-136884819D02*
X152187190Y-136884819D01*
X152187190Y-136884819D02*
X152282428Y-136932438D01*
X152282428Y-136932438D02*
X152330047Y-136980057D01*
X152330047Y-136980057D02*
X152425285Y-137122914D01*
X152425285Y-137122914D02*
X152472904Y-137313390D01*
X152472904Y-137313390D02*
X152472904Y-137694342D01*
X152472904Y-137694342D02*
X152425285Y-137789580D01*
X152425285Y-137789580D02*
X152377666Y-137837200D01*
X152377666Y-137837200D02*
X152282428Y-137884819D01*
X152282428Y-137884819D02*
X152091952Y-137884819D01*
X152091952Y-137884819D02*
X151996714Y-137837200D01*
X151996714Y-137837200D02*
X151949095Y-137789580D01*
X151949095Y-137789580D02*
X151901476Y-137694342D01*
X151901476Y-137694342D02*
X151901476Y-137456247D01*
X151901476Y-137456247D02*
X151949095Y-137361009D01*
X151949095Y-137361009D02*
X151996714Y-137313390D01*
X151996714Y-137313390D02*
X152091952Y-137265771D01*
X152091952Y-137265771D02*
X152282428Y-137265771D01*
X152282428Y-137265771D02*
X152377666Y-137313390D01*
X152377666Y-137313390D02*
X152425285Y-137361009D01*
X152425285Y-137361009D02*
X152472904Y-137456247D01*
X150949095Y-137884819D02*
X151520523Y-137884819D01*
X151234809Y-137884819D02*
X151234809Y-136884819D01*
X151234809Y-136884819D02*
X151330047Y-137027676D01*
X151330047Y-137027676D02*
X151425285Y-137122914D01*
X151425285Y-137122914D02*
X151520523Y-137170533D01*
X176040819Y-92638905D02*
X175040819Y-92638905D01*
X175040819Y-92638905D02*
X175040819Y-92877000D01*
X175040819Y-92877000D02*
X175088438Y-93019857D01*
X175088438Y-93019857D02*
X175183676Y-93115095D01*
X175183676Y-93115095D02*
X175278914Y-93162714D01*
X175278914Y-93162714D02*
X175469390Y-93210333D01*
X175469390Y-93210333D02*
X175612247Y-93210333D01*
X175612247Y-93210333D02*
X175802723Y-93162714D01*
X175802723Y-93162714D02*
X175897961Y-93115095D01*
X175897961Y-93115095D02*
X175993200Y-93019857D01*
X175993200Y-93019857D02*
X176040819Y-92877000D01*
X176040819Y-92877000D02*
X176040819Y-92638905D01*
X175040819Y-93543667D02*
X175040819Y-94162714D01*
X175040819Y-94162714D02*
X175421771Y-93829381D01*
X175421771Y-93829381D02*
X175421771Y-93972238D01*
X175421771Y-93972238D02*
X175469390Y-94067476D01*
X175469390Y-94067476D02*
X175517009Y-94115095D01*
X175517009Y-94115095D02*
X175612247Y-94162714D01*
X175612247Y-94162714D02*
X175850342Y-94162714D01*
X175850342Y-94162714D02*
X175945580Y-94115095D01*
X175945580Y-94115095D02*
X175993200Y-94067476D01*
X175993200Y-94067476D02*
X176040819Y-93972238D01*
X176040819Y-93972238D02*
X176040819Y-93686524D01*
X176040819Y-93686524D02*
X175993200Y-93591286D01*
X175993200Y-93591286D02*
X175945580Y-93543667D01*
X175460819Y-99941142D02*
X174984628Y-99607809D01*
X175460819Y-99369714D02*
X174460819Y-99369714D01*
X174460819Y-99369714D02*
X174460819Y-99750666D01*
X174460819Y-99750666D02*
X174508438Y-99845904D01*
X174508438Y-99845904D02*
X174556057Y-99893523D01*
X174556057Y-99893523D02*
X174651295Y-99941142D01*
X174651295Y-99941142D02*
X174794152Y-99941142D01*
X174794152Y-99941142D02*
X174889390Y-99893523D01*
X174889390Y-99893523D02*
X174937009Y-99845904D01*
X174937009Y-99845904D02*
X174984628Y-99750666D01*
X174984628Y-99750666D02*
X174984628Y-99369714D01*
X174460819Y-100845904D02*
X174460819Y-100369714D01*
X174460819Y-100369714D02*
X174937009Y-100322095D01*
X174937009Y-100322095D02*
X174889390Y-100369714D01*
X174889390Y-100369714D02*
X174841771Y-100464952D01*
X174841771Y-100464952D02*
X174841771Y-100703047D01*
X174841771Y-100703047D02*
X174889390Y-100798285D01*
X174889390Y-100798285D02*
X174937009Y-100845904D01*
X174937009Y-100845904D02*
X175032247Y-100893523D01*
X175032247Y-100893523D02*
X175270342Y-100893523D01*
X175270342Y-100893523D02*
X175365580Y-100845904D01*
X175365580Y-100845904D02*
X175413200Y-100798285D01*
X175413200Y-100798285D02*
X175460819Y-100703047D01*
X175460819Y-100703047D02*
X175460819Y-100464952D01*
X175460819Y-100464952D02*
X175413200Y-100369714D01*
X175413200Y-100369714D02*
X175365580Y-100322095D01*
X174460819Y-101798285D02*
X174460819Y-101322095D01*
X174460819Y-101322095D02*
X174937009Y-101274476D01*
X174937009Y-101274476D02*
X174889390Y-101322095D01*
X174889390Y-101322095D02*
X174841771Y-101417333D01*
X174841771Y-101417333D02*
X174841771Y-101655428D01*
X174841771Y-101655428D02*
X174889390Y-101750666D01*
X174889390Y-101750666D02*
X174937009Y-101798285D01*
X174937009Y-101798285D02*
X175032247Y-101845904D01*
X175032247Y-101845904D02*
X175270342Y-101845904D01*
X175270342Y-101845904D02*
X175365580Y-101798285D01*
X175365580Y-101798285D02*
X175413200Y-101750666D01*
X175413200Y-101750666D02*
X175460819Y-101655428D01*
X175460819Y-101655428D02*
X175460819Y-101417333D01*
X175460819Y-101417333D02*
X175413200Y-101322095D01*
X175413200Y-101322095D02*
X175365580Y-101274476D01*
X152980857Y-143472819D02*
X153314190Y-142996628D01*
X153552285Y-143472819D02*
X153552285Y-142472819D01*
X153552285Y-142472819D02*
X153171333Y-142472819D01*
X153171333Y-142472819D02*
X153076095Y-142520438D01*
X153076095Y-142520438D02*
X153028476Y-142568057D01*
X153028476Y-142568057D02*
X152980857Y-142663295D01*
X152980857Y-142663295D02*
X152980857Y-142806152D01*
X152980857Y-142806152D02*
X153028476Y-142901390D01*
X153028476Y-142901390D02*
X153076095Y-142949009D01*
X153076095Y-142949009D02*
X153171333Y-142996628D01*
X153171333Y-142996628D02*
X153552285Y-142996628D01*
X152123714Y-142472819D02*
X152314190Y-142472819D01*
X152314190Y-142472819D02*
X152409428Y-142520438D01*
X152409428Y-142520438D02*
X152457047Y-142568057D01*
X152457047Y-142568057D02*
X152552285Y-142710914D01*
X152552285Y-142710914D02*
X152599904Y-142901390D01*
X152599904Y-142901390D02*
X152599904Y-143282342D01*
X152599904Y-143282342D02*
X152552285Y-143377580D01*
X152552285Y-143377580D02*
X152504666Y-143425200D01*
X152504666Y-143425200D02*
X152409428Y-143472819D01*
X152409428Y-143472819D02*
X152218952Y-143472819D01*
X152218952Y-143472819D02*
X152123714Y-143425200D01*
X152123714Y-143425200D02*
X152076095Y-143377580D01*
X152076095Y-143377580D02*
X152028476Y-143282342D01*
X152028476Y-143282342D02*
X152028476Y-143044247D01*
X152028476Y-143044247D02*
X152076095Y-142949009D01*
X152076095Y-142949009D02*
X152123714Y-142901390D01*
X152123714Y-142901390D02*
X152218952Y-142853771D01*
X152218952Y-142853771D02*
X152409428Y-142853771D01*
X152409428Y-142853771D02*
X152504666Y-142901390D01*
X152504666Y-142901390D02*
X152552285Y-142949009D01*
X152552285Y-142949009D02*
X152599904Y-143044247D01*
X151123714Y-142472819D02*
X151599904Y-142472819D01*
X151599904Y-142472819D02*
X151647523Y-142949009D01*
X151647523Y-142949009D02*
X151599904Y-142901390D01*
X151599904Y-142901390D02*
X151504666Y-142853771D01*
X151504666Y-142853771D02*
X151266571Y-142853771D01*
X151266571Y-142853771D02*
X151171333Y-142901390D01*
X151171333Y-142901390D02*
X151123714Y-142949009D01*
X151123714Y-142949009D02*
X151076095Y-143044247D01*
X151076095Y-143044247D02*
X151076095Y-143282342D01*
X151076095Y-143282342D02*
X151123714Y-143377580D01*
X151123714Y-143377580D02*
X151171333Y-143425200D01*
X151171333Y-143425200D02*
X151266571Y-143472819D01*
X151266571Y-143472819D02*
X151504666Y-143472819D01*
X151504666Y-143472819D02*
X151599904Y-143425200D01*
X151599904Y-143425200D02*
X151647523Y-143377580D01*
X152853857Y-140678819D02*
X153187190Y-140202628D01*
X153425285Y-140678819D02*
X153425285Y-139678819D01*
X153425285Y-139678819D02*
X153044333Y-139678819D01*
X153044333Y-139678819D02*
X152949095Y-139726438D01*
X152949095Y-139726438D02*
X152901476Y-139774057D01*
X152901476Y-139774057D02*
X152853857Y-139869295D01*
X152853857Y-139869295D02*
X152853857Y-140012152D01*
X152853857Y-140012152D02*
X152901476Y-140107390D01*
X152901476Y-140107390D02*
X152949095Y-140155009D01*
X152949095Y-140155009D02*
X153044333Y-140202628D01*
X153044333Y-140202628D02*
X153425285Y-140202628D01*
X151996714Y-139678819D02*
X152187190Y-139678819D01*
X152187190Y-139678819D02*
X152282428Y-139726438D01*
X152282428Y-139726438D02*
X152330047Y-139774057D01*
X152330047Y-139774057D02*
X152425285Y-139916914D01*
X152425285Y-139916914D02*
X152472904Y-140107390D01*
X152472904Y-140107390D02*
X152472904Y-140488342D01*
X152472904Y-140488342D02*
X152425285Y-140583580D01*
X152425285Y-140583580D02*
X152377666Y-140631200D01*
X152377666Y-140631200D02*
X152282428Y-140678819D01*
X152282428Y-140678819D02*
X152091952Y-140678819D01*
X152091952Y-140678819D02*
X151996714Y-140631200D01*
X151996714Y-140631200D02*
X151949095Y-140583580D01*
X151949095Y-140583580D02*
X151901476Y-140488342D01*
X151901476Y-140488342D02*
X151901476Y-140250247D01*
X151901476Y-140250247D02*
X151949095Y-140155009D01*
X151949095Y-140155009D02*
X151996714Y-140107390D01*
X151996714Y-140107390D02*
X152091952Y-140059771D01*
X152091952Y-140059771D02*
X152282428Y-140059771D01*
X152282428Y-140059771D02*
X152377666Y-140107390D01*
X152377666Y-140107390D02*
X152425285Y-140155009D01*
X152425285Y-140155009D02*
X152472904Y-140250247D01*
X151044333Y-139678819D02*
X151234809Y-139678819D01*
X151234809Y-139678819D02*
X151330047Y-139726438D01*
X151330047Y-139726438D02*
X151377666Y-139774057D01*
X151377666Y-139774057D02*
X151472904Y-139916914D01*
X151472904Y-139916914D02*
X151520523Y-140107390D01*
X151520523Y-140107390D02*
X151520523Y-140488342D01*
X151520523Y-140488342D02*
X151472904Y-140583580D01*
X151472904Y-140583580D02*
X151425285Y-140631200D01*
X151425285Y-140631200D02*
X151330047Y-140678819D01*
X151330047Y-140678819D02*
X151139571Y-140678819D01*
X151139571Y-140678819D02*
X151044333Y-140631200D01*
X151044333Y-140631200D02*
X150996714Y-140583580D01*
X150996714Y-140583580D02*
X150949095Y-140488342D01*
X150949095Y-140488342D02*
X150949095Y-140250247D01*
X150949095Y-140250247D02*
X150996714Y-140155009D01*
X150996714Y-140155009D02*
X151044333Y-140107390D01*
X151044333Y-140107390D02*
X151139571Y-140059771D01*
X151139571Y-140059771D02*
X151330047Y-140059771D01*
X151330047Y-140059771D02*
X151425285Y-140107390D01*
X151425285Y-140107390D02*
X151472904Y-140155009D01*
X151472904Y-140155009D02*
X151520523Y-140250247D01*
X175460819Y-120007142D02*
X174984628Y-119673809D01*
X175460819Y-119435714D02*
X174460819Y-119435714D01*
X174460819Y-119435714D02*
X174460819Y-119816666D01*
X174460819Y-119816666D02*
X174508438Y-119911904D01*
X174508438Y-119911904D02*
X174556057Y-119959523D01*
X174556057Y-119959523D02*
X174651295Y-120007142D01*
X174651295Y-120007142D02*
X174794152Y-120007142D01*
X174794152Y-120007142D02*
X174889390Y-119959523D01*
X174889390Y-119959523D02*
X174937009Y-119911904D01*
X174937009Y-119911904D02*
X174984628Y-119816666D01*
X174984628Y-119816666D02*
X174984628Y-119435714D01*
X174460819Y-120911904D02*
X174460819Y-120435714D01*
X174460819Y-120435714D02*
X174937009Y-120388095D01*
X174937009Y-120388095D02*
X174889390Y-120435714D01*
X174889390Y-120435714D02*
X174841771Y-120530952D01*
X174841771Y-120530952D02*
X174841771Y-120769047D01*
X174841771Y-120769047D02*
X174889390Y-120864285D01*
X174889390Y-120864285D02*
X174937009Y-120911904D01*
X174937009Y-120911904D02*
X175032247Y-120959523D01*
X175032247Y-120959523D02*
X175270342Y-120959523D01*
X175270342Y-120959523D02*
X175365580Y-120911904D01*
X175365580Y-120911904D02*
X175413200Y-120864285D01*
X175413200Y-120864285D02*
X175460819Y-120769047D01*
X175460819Y-120769047D02*
X175460819Y-120530952D01*
X175460819Y-120530952D02*
X175413200Y-120435714D01*
X175413200Y-120435714D02*
X175365580Y-120388095D01*
X174460819Y-121292857D02*
X174460819Y-121959523D01*
X174460819Y-121959523D02*
X175460819Y-121530952D01*
X163340819Y-92638905D02*
X162340819Y-92638905D01*
X162340819Y-92638905D02*
X162340819Y-92877000D01*
X162340819Y-92877000D02*
X162388438Y-93019857D01*
X162388438Y-93019857D02*
X162483676Y-93115095D01*
X162483676Y-93115095D02*
X162578914Y-93162714D01*
X162578914Y-93162714D02*
X162769390Y-93210333D01*
X162769390Y-93210333D02*
X162912247Y-93210333D01*
X162912247Y-93210333D02*
X163102723Y-93162714D01*
X163102723Y-93162714D02*
X163197961Y-93115095D01*
X163197961Y-93115095D02*
X163293200Y-93019857D01*
X163293200Y-93019857D02*
X163340819Y-92877000D01*
X163340819Y-92877000D02*
X163340819Y-92638905D01*
X162674152Y-94067476D02*
X163340819Y-94067476D01*
X162293200Y-93829381D02*
X163007485Y-93591286D01*
X163007485Y-93591286D02*
X163007485Y-94210333D01*
X159584857Y-143472819D02*
X159918190Y-142996628D01*
X160156285Y-143472819D02*
X160156285Y-142472819D01*
X160156285Y-142472819D02*
X159775333Y-142472819D01*
X159775333Y-142472819D02*
X159680095Y-142520438D01*
X159680095Y-142520438D02*
X159632476Y-142568057D01*
X159632476Y-142568057D02*
X159584857Y-142663295D01*
X159584857Y-142663295D02*
X159584857Y-142806152D01*
X159584857Y-142806152D02*
X159632476Y-142901390D01*
X159632476Y-142901390D02*
X159680095Y-142949009D01*
X159680095Y-142949009D02*
X159775333Y-142996628D01*
X159775333Y-142996628D02*
X160156285Y-142996628D01*
X158727714Y-142472819D02*
X158918190Y-142472819D01*
X158918190Y-142472819D02*
X159013428Y-142520438D01*
X159013428Y-142520438D02*
X159061047Y-142568057D01*
X159061047Y-142568057D02*
X159156285Y-142710914D01*
X159156285Y-142710914D02*
X159203904Y-142901390D01*
X159203904Y-142901390D02*
X159203904Y-143282342D01*
X159203904Y-143282342D02*
X159156285Y-143377580D01*
X159156285Y-143377580D02*
X159108666Y-143425200D01*
X159108666Y-143425200D02*
X159013428Y-143472819D01*
X159013428Y-143472819D02*
X158822952Y-143472819D01*
X158822952Y-143472819D02*
X158727714Y-143425200D01*
X158727714Y-143425200D02*
X158680095Y-143377580D01*
X158680095Y-143377580D02*
X158632476Y-143282342D01*
X158632476Y-143282342D02*
X158632476Y-143044247D01*
X158632476Y-143044247D02*
X158680095Y-142949009D01*
X158680095Y-142949009D02*
X158727714Y-142901390D01*
X158727714Y-142901390D02*
X158822952Y-142853771D01*
X158822952Y-142853771D02*
X159013428Y-142853771D01*
X159013428Y-142853771D02*
X159108666Y-142901390D01*
X159108666Y-142901390D02*
X159156285Y-142949009D01*
X159156285Y-142949009D02*
X159203904Y-143044247D01*
X158299142Y-142472819D02*
X157632476Y-142472819D01*
X157632476Y-142472819D02*
X158061047Y-143472819D01*
X163671238Y-87672057D02*
X163766476Y-87624438D01*
X163766476Y-87624438D02*
X163861714Y-87529200D01*
X163861714Y-87529200D02*
X164004571Y-87386342D01*
X164004571Y-87386342D02*
X164099809Y-87338723D01*
X164099809Y-87338723D02*
X164195047Y-87338723D01*
X164147428Y-87576819D02*
X164242666Y-87529200D01*
X164242666Y-87529200D02*
X164337904Y-87433961D01*
X164337904Y-87433961D02*
X164385523Y-87243485D01*
X164385523Y-87243485D02*
X164385523Y-86910152D01*
X164385523Y-86910152D02*
X164337904Y-86719676D01*
X164337904Y-86719676D02*
X164242666Y-86624438D01*
X164242666Y-86624438D02*
X164147428Y-86576819D01*
X164147428Y-86576819D02*
X163956952Y-86576819D01*
X163956952Y-86576819D02*
X163861714Y-86624438D01*
X163861714Y-86624438D02*
X163766476Y-86719676D01*
X163766476Y-86719676D02*
X163718857Y-86910152D01*
X163718857Y-86910152D02*
X163718857Y-87243485D01*
X163718857Y-87243485D02*
X163766476Y-87433961D01*
X163766476Y-87433961D02*
X163861714Y-87529200D01*
X163861714Y-87529200D02*
X163956952Y-87576819D01*
X163956952Y-87576819D02*
X164147428Y-87576819D01*
X163385523Y-86576819D02*
X162766476Y-86576819D01*
X162766476Y-86576819D02*
X163099809Y-86957771D01*
X163099809Y-86957771D02*
X162956952Y-86957771D01*
X162956952Y-86957771D02*
X162861714Y-87005390D01*
X162861714Y-87005390D02*
X162814095Y-87053009D01*
X162814095Y-87053009D02*
X162766476Y-87148247D01*
X162766476Y-87148247D02*
X162766476Y-87386342D01*
X162766476Y-87386342D02*
X162814095Y-87481580D01*
X162814095Y-87481580D02*
X162861714Y-87529200D01*
X162861714Y-87529200D02*
X162956952Y-87576819D01*
X162956952Y-87576819D02*
X163242666Y-87576819D01*
X163242666Y-87576819D02*
X163337904Y-87529200D01*
X163337904Y-87529200D02*
X163385523Y-87481580D01*
D11*
X148882064Y-146547000D02*
X148427936Y-146547000D01*
X148882064Y-145077000D02*
X148427936Y-145077000D01*
X162397984Y-133901000D02*
X162852112Y-133901000D01*
X162397984Y-135371000D02*
X162852112Y-135371000D01*
X162852112Y-140959000D02*
X162397984Y-140959000D01*
X162852112Y-139489000D02*
X162397984Y-139489000D01*
X148882064Y-135371000D02*
X148427936Y-135371000D01*
X148882064Y-133901000D02*
X148427936Y-133901000D01*
X160501000Y-83751936D02*
X160501000Y-84206064D01*
X159031000Y-83751936D02*
X159031000Y-84206064D01*
X173201000Y-83751936D02*
X173201000Y-84206064D01*
X171731000Y-83751936D02*
X171731000Y-84206064D01*
X174666000Y-130542000D02*
X172236000Y-130542000D01*
X174686000Y-127482000D02*
X172836000Y-127482000D01*
X174686000Y-128532000D02*
X174686000Y-127482000D01*
X174686000Y-130532000D02*
X174686000Y-129532000D01*
X172886000Y-115786000D02*
X172886000Y-112526000D01*
X174586000Y-115786000D02*
X172886000Y-115786000D01*
X174586000Y-115786000D02*
X174586000Y-112526000D01*
X174666000Y-90315000D02*
X172236000Y-90315000D01*
X174686000Y-87255000D02*
X172836000Y-87255000D01*
X174686000Y-88305000D02*
X174686000Y-87255000D01*
X174686000Y-90305000D02*
X174686000Y-89305000D01*
X174666000Y-110714000D02*
X172236000Y-110714000D01*
X174686000Y-107654000D02*
X172836000Y-107654000D01*
X174686000Y-108704000D02*
X174686000Y-107654000D01*
X174686000Y-110704000D02*
X174686000Y-109704000D01*
X174271000Y-84206064D02*
X174271000Y-83751936D01*
X175741000Y-84206064D02*
X175741000Y-83751936D01*
X162852112Y-146547000D02*
X162397984Y-146547000D01*
X162852112Y-145077000D02*
X162397984Y-145077000D01*
X162397984Y-136695000D02*
X162852112Y-136695000D01*
X162397984Y-138165000D02*
X162852112Y-138165000D01*
X186524000Y-69364000D02*
X186524000Y-72624000D01*
X184824000Y-69364000D02*
X186524000Y-69364000D01*
X184824000Y-69364000D02*
X184824000Y-72624000D01*
X172886000Y-135614000D02*
X172886000Y-132354000D01*
X174586000Y-135614000D02*
X172886000Y-135614000D01*
X174586000Y-135614000D02*
X174586000Y-132354000D01*
X161571000Y-84206064D02*
X161571000Y-83751936D01*
X163041000Y-84206064D02*
X163041000Y-83751936D01*
X171731000Y-104605064D02*
X171731000Y-104150936D01*
X173201000Y-104605064D02*
X173201000Y-104150936D01*
X188859000Y-80837000D02*
X188859000Y-82787000D01*
X188859000Y-80837000D02*
X188859000Y-78887000D01*
X197729000Y-80837000D02*
X197729000Y-84287000D01*
X197729000Y-80837000D02*
X197729000Y-78887000D01*
X172947000Y-123978936D02*
X172947000Y-124433064D01*
X171477000Y-123978936D02*
X171477000Y-124433064D01*
X148882064Y-138165000D02*
X148427936Y-138165000D01*
X148882064Y-136695000D02*
X148427936Y-136695000D01*
X172886000Y-95387000D02*
X172886000Y-92127000D01*
X174586000Y-95387000D02*
X172886000Y-95387000D01*
X174586000Y-95387000D02*
X174586000Y-92127000D01*
X175741000Y-104150936D02*
X175741000Y-104605064D01*
X174271000Y-104150936D02*
X174271000Y-104605064D01*
X148882064Y-143753000D02*
X148427936Y-143753000D01*
X148882064Y-142283000D02*
X148427936Y-142283000D01*
X148427936Y-139489000D02*
X148882064Y-139489000D01*
X148427936Y-140959000D02*
X148882064Y-140959000D01*
X174271000Y-124417064D02*
X174271000Y-123962936D01*
X175741000Y-124417064D02*
X175741000Y-123962936D01*
X160186000Y-95387000D02*
X160186000Y-92127000D01*
X161886000Y-95387000D02*
X160186000Y-95387000D01*
X161886000Y-95387000D02*
X161886000Y-92127000D01*
X162852112Y-143753000D02*
X162397984Y-143753000D01*
X162852112Y-142283000D02*
X162397984Y-142283000D01*
X161966000Y-90315000D02*
X159536000Y-90315000D01*
X161986000Y-87255000D02*
X160136000Y-87255000D01*
X161986000Y-88305000D02*
X161986000Y-87255000D01*
X161986000Y-90305000D02*
X161986000Y-89305000D01*
%LPC*%
D12*
X109224302Y-62066352D03*
X103624302Y-75266352D03*
D13*
X105174302Y-73666352D03*
X105174302Y-71666352D03*
X105174302Y-69666352D03*
X105174302Y-67666352D03*
X105174302Y-65666352D03*
X105174302Y-63666352D03*
X107674302Y-73666352D03*
X107674302Y-71666352D03*
X107674302Y-69666352D03*
X107674302Y-67666352D03*
X107674302Y-65666352D03*
X107674302Y-63666352D03*
D14*
X114300000Y-60830000D03*
D15*
X119300000Y-60830000D03*
D14*
X127080000Y-60830000D03*
D15*
X132080000Y-60830000D03*
X144740000Y-60830000D03*
D14*
X139740000Y-60830000D03*
D16*
X183134000Y-67564000D03*
X183134000Y-75184000D03*
X185674000Y-75184000D03*
X185674000Y-67564000D03*
X195834000Y-75184000D03*
X195834000Y-67564000D03*
X169899000Y-134488000D03*
X177519000Y-134488000D03*
X177519000Y-131948000D03*
X169899000Y-131948000D03*
X177519000Y-121788000D03*
X169899000Y-121788000D03*
X157199000Y-94261000D03*
X164819000Y-94261000D03*
X164819000Y-91721000D03*
X157199000Y-91721000D03*
X164819000Y-81561000D03*
X157199000Y-81561000D03*
X169899000Y-114660000D03*
X177519000Y-114660000D03*
X177519000Y-112120000D03*
X169899000Y-112120000D03*
X177519000Y-101960000D03*
X169899000Y-101960000D03*
X169899000Y-94261000D03*
X177519000Y-94261000D03*
X177519000Y-91721000D03*
X169899000Y-91721000D03*
X177519000Y-81561000D03*
X169899000Y-81561000D03*
D17*
X182636000Y-86878000D03*
D18*
X182636000Y-89418000D03*
X182636000Y-91958000D03*
X182636000Y-94498000D03*
X190256000Y-94498000D03*
X190256000Y-91958000D03*
X190256000Y-89418000D03*
X190256000Y-86878000D03*
D19*
X191516000Y-61976000D03*
X189516000Y-61976000D03*
D20*
X110946000Y-110708000D03*
D21*
X104446000Y-110708000D03*
X110946000Y-106208000D03*
X104446000Y-106208000D03*
D17*
X182636000Y-123200000D03*
D18*
X182636000Y-125740000D03*
X182636000Y-128280000D03*
X182636000Y-130820000D03*
X190256000Y-130820000D03*
X190256000Y-128280000D03*
X190256000Y-125740000D03*
X190256000Y-123200000D03*
D22*
X171704000Y-70231000D03*
D20*
X110946000Y-119598000D03*
D21*
X104446000Y-119598000D03*
X110946000Y-115098000D03*
X104446000Y-115098000D03*
D23*
X145034000Y-114046000D03*
X142494000Y-114046000D03*
X139954000Y-114046000D03*
D24*
X129825000Y-57020000D03*
X129825000Y-72520000D03*
X142525000Y-57020000D03*
X142525000Y-72520000D03*
D22*
X176784000Y-70231000D03*
X172720000Y-143510000D03*
D25*
X185430000Y-140960000D03*
X185430000Y-146060000D03*
X180330000Y-146060000D03*
X180330000Y-140960000D03*
D26*
X182880000Y-143510000D03*
D27*
X193040000Y-55880000D03*
X193742944Y-54182944D03*
X193742944Y-57577056D03*
X195440000Y-53480000D03*
D28*
X195440000Y-55880000D03*
D27*
X195440000Y-58280000D03*
X197137056Y-54182944D03*
X197137056Y-57577056D03*
X197840000Y-55880000D03*
D19*
X125492000Y-91186000D03*
X127492000Y-91186000D03*
X195342000Y-116586000D03*
X197342000Y-116586000D03*
D17*
X118374000Y-104902000D03*
D18*
X118374000Y-107442000D03*
X118374000Y-109982000D03*
X118374000Y-112522000D03*
X118374000Y-115062000D03*
X118374000Y-117602000D03*
X118374000Y-120142000D03*
X118374000Y-122682000D03*
X118374000Y-125222000D03*
X118374000Y-127762000D03*
X118374000Y-130302000D03*
X118374000Y-132842000D03*
X118374000Y-135382000D03*
X118374000Y-137922000D03*
X118374000Y-140462000D03*
X133614000Y-140462000D03*
X133614000Y-137922000D03*
X133614000Y-135382000D03*
X133614000Y-132842000D03*
X133614000Y-130302000D03*
X133614000Y-127762000D03*
X133614000Y-125222000D03*
X133614000Y-122682000D03*
X133614000Y-120142000D03*
X133614000Y-117602000D03*
X133614000Y-115062000D03*
X133614000Y-112522000D03*
X133614000Y-109982000D03*
X133614000Y-107442000D03*
X133614000Y-104902000D03*
D26*
X182890000Y-57160000D03*
D25*
X185440000Y-59710000D03*
X185440000Y-54610000D03*
X180340000Y-54610000D03*
X180340000Y-59710000D03*
D27*
X104280000Y-144780000D03*
X104982944Y-143082944D03*
X104982944Y-146477056D03*
X106680000Y-142380000D03*
D28*
X106680000Y-144780000D03*
D27*
X106680000Y-147180000D03*
X108377056Y-143082944D03*
X108377056Y-146477056D03*
X109080000Y-144780000D03*
X104280000Y-55740000D03*
X104982944Y-54042944D03*
X104982944Y-57437056D03*
X106680000Y-53340000D03*
D28*
X106680000Y-55740000D03*
D27*
X106680000Y-58140000D03*
X108377056Y-54042944D03*
X108377056Y-57437056D03*
X109080000Y-55740000D03*
D22*
X178054000Y-63754000D03*
D24*
X117125000Y-57020000D03*
X117125000Y-72520000D03*
D17*
X182636000Y-105039000D03*
D18*
X182636000Y-107579000D03*
X182636000Y-110119000D03*
X182636000Y-112659000D03*
X190256000Y-112659000D03*
X190256000Y-110119000D03*
X190256000Y-107579000D03*
X190256000Y-105039000D03*
D22*
X166958000Y-70231000D03*
X163164000Y-112792000D03*
D29*
X133350000Y-95236000D03*
D30*
X133350000Y-87136000D03*
X135890000Y-95236000D03*
X135890000Y-87136000D03*
X138430000Y-95236000D03*
X138430000Y-87136000D03*
X140970000Y-95236000D03*
X140970000Y-87136000D03*
X143510000Y-95236000D03*
X143510000Y-87136000D03*
X146050000Y-95236000D03*
X146050000Y-87136000D03*
X148590000Y-95236000D03*
X148590000Y-87136000D03*
X151130000Y-95236000D03*
X151130000Y-87136000D03*
D27*
X193180000Y-144780000D03*
X193882944Y-143082944D03*
X193882944Y-146477056D03*
X195580000Y-142380000D03*
D28*
X195580000Y-144780000D03*
D27*
X195580000Y-147180000D03*
X197277056Y-143082944D03*
X197277056Y-146477056D03*
X197980000Y-144780000D03*
D19*
X125492000Y-81788000D03*
X127492000Y-81788000D03*
D31*
X149655000Y-145812000D03*
X147655000Y-145812000D03*
D32*
X161625048Y-134636000D03*
X163625048Y-134636000D03*
D31*
X163625048Y-140224000D03*
X161625048Y-140224000D03*
X149655000Y-134636000D03*
X147655000Y-134636000D03*
D33*
X159766000Y-82979000D03*
X159766000Y-84979000D03*
X172466000Y-82979000D03*
X172466000Y-84979000D03*
D34*
X175446000Y-129032000D03*
X172026000Y-129982000D03*
X172026000Y-128082000D03*
D35*
X173736000Y-115026000D03*
X173736000Y-112526000D03*
D34*
X175446000Y-88805000D03*
X172026000Y-89755000D03*
X172026000Y-87855000D03*
X175446000Y-109204000D03*
X172026000Y-110154000D03*
X172026000Y-108254000D03*
D36*
X175006000Y-84979000D03*
X175006000Y-82979000D03*
D31*
X163625048Y-145812000D03*
X161625048Y-145812000D03*
D32*
X161625048Y-137430000D03*
X163625048Y-137430000D03*
D37*
X185674000Y-70124000D03*
X185674000Y-72624000D03*
D35*
X173736000Y-134854000D03*
X173736000Y-132354000D03*
D36*
X162306000Y-84979000D03*
X162306000Y-82979000D03*
X172466000Y-105378000D03*
X172466000Y-103378000D03*
D38*
X197104000Y-83312000D03*
X195834000Y-83312000D03*
X194564000Y-83312000D03*
X193294000Y-83312000D03*
X192024000Y-83312000D03*
X190754000Y-83312000D03*
X189484000Y-83312000D03*
X189484000Y-78362000D03*
X190754000Y-78362000D03*
X192024000Y-78362000D03*
X193294000Y-78362000D03*
X194564000Y-78362000D03*
X195834000Y-78362000D03*
X197104000Y-78362000D03*
D33*
X172212000Y-123206000D03*
X172212000Y-125206000D03*
D31*
X149655000Y-137430000D03*
X147655000Y-137430000D03*
D35*
X173736000Y-94627000D03*
X173736000Y-92127000D03*
D33*
X175006000Y-103378000D03*
X175006000Y-105378000D03*
D31*
X149655000Y-143018000D03*
X147655000Y-143018000D03*
D32*
X147655000Y-140224000D03*
X149655000Y-140224000D03*
D36*
X175006000Y-125190000D03*
X175006000Y-123190000D03*
D35*
X161036000Y-94627000D03*
X161036000Y-92127000D03*
D31*
X163625048Y-143018000D03*
X161625048Y-143018000D03*
D34*
X162746000Y-88805000D03*
X159326000Y-89755000D03*
X159326000Y-87855000D03*
%LPD*%
M02*
