M48
; DRILL file {KiCad 7.0.7} date Wed Oct 18 16:14:31 2023
; FORMAT={-:-/ absolute / metric / decimal}
; #@! TF.CreationDate,2023-10-18T16:14:31+03:00
; #@! TF.GenerationSoftware,Kicad,Pcbnew,7.0.7
; #@! TF.FileFunction,Plated,1,4,PTH
FMAT,2
METRIC
; #@! TA.AperFunction,Plated,PTH,ViaDrill
T1C0.250
; #@! TA.AperFunction,Plated,PTH,ViaDrill
T2C0.300
; #@! TA.AperFunction,Plated,PTH,ComponentDrill
T3C0.500
; #@! TA.AperFunction,Plated,PTH,ComponentDrill
T4C0.600
; #@! TA.AperFunction,Plated,PTH,ComponentDrill
T5C0.700
; #@! TA.AperFunction,Plated,PTH,ComponentDrill
T6C0.800
; #@! TA.AperFunction,Plated,PTH,ComponentDrill
T7C0.810
; #@! TA.AperFunction,Plated,PTH,ComponentDrill
T8C0.850
; #@! TA.AperFunction,Plated,PTH,ComponentDrill
T9C0.990
; #@! TA.AperFunction,Plated,PTH,ComponentDrill
T10C1.000
; #@! TA.AperFunction,Plated,PTH,ComponentDrill
T11C1.100
; #@! TA.AperFunction,Plated,PTH,ComponentDrill
T12C1.300
; #@! TA.AperFunction,Plated,PTH,ComponentDrill
T13C1.400
; #@! TA.AperFunction,Plated,PTH,ComponentDrill
T14C1.500
; #@! TA.AperFunction,Plated,PTH,ComponentDrill
T15C1.970
; #@! TA.AperFunction,Plated,PTH,ComponentDrill
T16C3.200
%
G90
G05
T1
X108.077Y-95.885
X110.78Y-75.73
X111.379Y-78.232
X111.709Y-81.077
X111.76Y-94.183
X114.3Y-93.37
X117.5Y-95.75
X119.507Y-74.549
X121.666Y-121.006
X123.063Y-63.119
X127.864Y-112.065
X130.81Y-148.463
X143.637Y-126.619
X143.764Y-133.731
X144.018Y-145.796
X144.272Y-130.556
X145.796Y-133.731
X145.923Y-131.953
X146.05Y-140.208
X146.05Y-143.002
X146.177Y-128.27
X146.304Y-120.777
X146.304Y-124.968
X146.812Y-90.932
X148.844Y-107.061
X149.809Y-122.072
X150.749Y-116.205
X150.876Y-77.851
X151.13Y-137.033
X151.384Y-136.017
X153.924Y-103.378
X153.924Y-108.966
X154.33Y-88.138
X154.559Y-94.234
X154.94Y-116.205
X155.55Y-75.133
X155.575Y-143.002
X155.829Y-113.919
X155.829Y-118.745
X156.21Y-140.462
X156.337Y-128.016
X159.639Y-121.285
X160.401Y-108.712
X160.401Y-126.365
X160.985Y-84.023
X161.138Y-115.062
X161.798Y-100.33
X163.322Y-147.574
X163.576Y-133.223
X163.83Y-83.947
X164.719Y-114.173
X164.846Y-117.094
X164.998Y-107.34
X165.1Y-74.879
X165.1Y-131.064
X165.354Y-124.587
X165.481Y-133.35
X165.608Y-89.408
X165.608Y-100.889
X165.989Y-139.319
X166.37Y-142.621
X166.624Y-121.158
X166.827Y-98.044
X167.767Y-97.409
X168.021Y-110.49
X168.656Y-124.333
X172.212Y-126.39
X173.787Y-83.922
X175.006Y-127.381
X175.26Y-100.711
X175.514Y-146.812
X177.038Y-89.789
X177.292Y-87.249
X177.292Y-125.603
X178.181Y-79.121
X178.943Y-109.982
X180.086Y-91.948
X180.086Y-121.539
X180.213Y-94.742
X180.213Y-117.221
X185.801Y-95.758
X186.055Y-86.995
X186.944Y-119.507
X187.452Y-104.267
X187.706Y-123.317
X188.087Y-83.058
X190.373Y-72.517
X191.0Y-120.5
X191.135Y-95.758
X191.643Y-92.964
X191.897Y-101.092
X192.214Y-98.996
X192.278Y-100.33
X193.294Y-113.792
X193.421Y-86.487
X193.421Y-109.347
X193.548Y-92.71
X195.58Y-124.714
X195.707Y-121.031
X195.885Y-100.279
X195.961Y-114.681
X196.088Y-103.886
X196.215Y-112.903
X196.596Y-95.758
X196.596Y-128.778
X196.723Y-133.731
X196.85Y-86.36
X196.85Y-103.632
X196.977Y-100.203
X197.104Y-87.757
X197.155Y-109.22
X197.485Y-124.587
X197.485Y-128.016
X197.612Y-92.837
X197.612Y-98.933
X197.612Y-107.696
X197.993Y-95.631
X197.993Y-96.393
X198.247Y-133.858
X199.136Y-77.343
X199.39Y-109.728
X199.517Y-100.711
T2
X104.648Y-123.19
X109.22Y-123.19
X138.684Y-84.328
X143.383Y-106.045
X148.605Y-55.779
X148.605Y-57.049
X148.605Y-68.479
X148.605Y-69.749
X149.24Y-56.414
X149.24Y-69.114
X149.875Y-55.779
X149.875Y-57.049
X149.875Y-68.479
X149.875Y-69.749
X153.67Y-55.753
X153.67Y-57.023
X153.67Y-68.453
X153.67Y-69.723
X154.305Y-56.388
X154.305Y-69.088
X154.624Y-141.875
X154.94Y-55.753
X154.94Y-57.023
X154.94Y-59.69
X154.94Y-68.453
X154.94Y-69.723
X155.194Y-120.904
X155.64Y-144.288
X156.148Y-137.938
X156.148Y-139.208
X156.21Y-117.856
X158.765Y-55.779
X158.765Y-57.049
X158.765Y-68.479
X158.765Y-69.749
X159.4Y-56.414
X159.4Y-69.114
X159.704Y-135.271
X160.035Y-55.779
X160.035Y-57.049
X160.035Y-68.479
X160.035Y-69.749
X160.593Y-112.538
X161.101Y-116.094
X161.29Y-56.515
X163.603Y-60.648
X163.957Y-102.489
X165.608Y-58.42
X165.608Y-59.69
X165.608Y-60.96
X165.608Y-62.23
X165.608Y-63.5
X165.608Y-64.77
X165.608Y-66.04
X165.608Y-67.31
X166.243Y-57.785
X166.243Y-59.055
X166.243Y-60.325
X166.243Y-61.595
X166.243Y-62.865
X166.243Y-64.135
X166.243Y-65.405
X166.243Y-66.675
X166.243Y-67.945
X166.37Y-137.414
X166.878Y-58.42
X166.878Y-59.69
X166.878Y-60.96
X166.878Y-62.23
X166.878Y-63.5
X166.878Y-64.77
X166.878Y-66.04
X166.878Y-67.31
X167.386Y-103.886
X167.513Y-57.785
X167.513Y-59.055
X167.513Y-66.675
X167.513Y-67.945
X168.148Y-58.42
X168.148Y-67.31
X168.783Y-57.785
X168.783Y-59.055
X168.783Y-66.675
X168.783Y-67.945
X169.418Y-58.42
X169.418Y-67.31
X170.053Y-57.785
X170.053Y-59.055
X170.053Y-66.675
X170.053Y-67.945
X170.688Y-58.42
X170.688Y-67.31
X171.323Y-57.785
X171.323Y-59.055
X171.323Y-66.675
X171.323Y-67.945
X171.958Y-58.42
X171.958Y-67.31
X172.593Y-57.785
X172.593Y-59.055
X172.593Y-66.675
X172.593Y-67.945
X173.228Y-58.42
X173.228Y-67.31
X173.863Y-57.785
X173.863Y-59.055
X173.863Y-66.675
X173.863Y-67.945
X174.498Y-58.42
X174.498Y-59.69
X174.498Y-60.96
X174.498Y-62.23
X174.498Y-63.5
X174.498Y-64.77
X174.498Y-66.04
X174.498Y-67.31
X175.133Y-57.785
X175.133Y-59.055
X175.133Y-60.325
X175.133Y-61.595
X175.133Y-62.865
X175.133Y-64.135
X175.133Y-65.405
X175.133Y-66.675
X175.133Y-67.945
X175.768Y-58.42
X175.768Y-59.69
X175.768Y-60.96
X175.768Y-62.23
X175.768Y-63.5
X175.768Y-64.77
X175.768Y-66.04
X175.768Y-67.31
X176.403Y-74.803
X176.657Y-83.566
X177.038Y-78.994
X178.816Y-86.36
X179.451Y-97.409
X180.594Y-80.391
X180.594Y-98.298
X184.404Y-77.978
X185.166Y-78.994
X185.547Y-107.569
X188.214Y-79.756
X189.484Y-69.088
X191.008Y-75.692
X191.516Y-81.788
X192.024Y-94.488
X192.024Y-97.282
X192.151Y-80.264
X192.307Y-91.201
X192.405Y-85.725
X192.786Y-98.298
X194.056Y-80.01
X194.31Y-71.12
X194.31Y-86.106
X194.437Y-76.327
X195.834Y-76.962
X195.834Y-129.286
X195.842Y-99.416
X196.088Y-80.518
X196.85Y-61.722
X196.85Y-132.334
X197.485Y-81.28
X197.575Y-91.181
X198.12Y-71.12
T3
X104.28Y-55.74
X104.28Y-144.78
X104.983Y-54.043
X104.983Y-57.437
X104.983Y-143.083
X104.983Y-146.477
X106.68Y-53.34
X106.68Y-58.14
X106.68Y-142.38
X106.68Y-147.18
X108.377Y-54.043
X108.377Y-57.437
X108.377Y-143.083
X108.377Y-146.477
X109.08Y-55.74
X109.08Y-144.78
X193.04Y-55.88
X193.18Y-144.78
X193.743Y-54.183
X193.743Y-57.577
X193.883Y-143.083
X193.883Y-146.477
X195.44Y-53.48
X195.44Y-58.28
X195.58Y-142.38
X195.58Y-147.18
X197.137Y-54.183
X197.137Y-57.577
X197.277Y-143.083
X197.277Y-146.477
X197.84Y-55.88
X197.98Y-144.78
T4
X125.492Y-81.788
X125.492Y-91.186
X127.492Y-81.788
X127.492Y-91.186
X189.516Y-61.976
X191.516Y-61.976
X195.342Y-116.586
X197.342Y-116.586
T5
X163.164Y-112.792
X166.958Y-70.231
X171.704Y-70.231
X172.72Y-143.51
X176.784Y-70.231
X178.054Y-63.754
T6
X139.954Y-114.046
X142.494Y-114.046
X145.034Y-114.046
X182.636Y-86.878
X182.636Y-89.418
X182.636Y-91.958
X182.636Y-94.498
X182.636Y-105.039
X182.636Y-107.579
X182.636Y-110.119
X182.636Y-112.659
X182.636Y-123.2
X182.636Y-125.74
X182.636Y-128.28
X182.636Y-130.82
X190.256Y-86.878
X190.256Y-89.418
X190.256Y-91.958
X190.256Y-94.498
X190.256Y-105.039
X190.256Y-107.579
X190.256Y-110.119
X190.256Y-112.659
X190.256Y-123.2
X190.256Y-125.74
X190.256Y-128.28
X190.256Y-130.82
T7
X133.35Y-87.136
X133.35Y-95.236
X135.89Y-87.136
X135.89Y-95.236
X138.43Y-87.136
X138.43Y-95.236
X140.97Y-87.136
X140.97Y-95.236
X143.51Y-87.136
X143.51Y-95.236
X146.05Y-87.136
X146.05Y-95.236
X148.59Y-87.136
X148.59Y-95.236
X151.13Y-87.136
X151.13Y-95.236
T8
X105.174Y-63.666
X105.174Y-65.666
X105.174Y-67.666
X105.174Y-69.666
X105.174Y-71.666
X105.174Y-73.666
X107.674Y-63.666
X107.674Y-65.666
X107.674Y-67.666
X107.674Y-69.666
X107.674Y-71.666
X107.674Y-73.666
T9
X104.446Y-106.208
X104.446Y-110.708
X104.446Y-115.098
X104.446Y-119.598
X110.946Y-106.208
X110.946Y-110.708
X110.946Y-115.098
X110.946Y-119.598
T10
X118.374Y-104.902
X118.374Y-107.442
X118.374Y-109.982
X118.374Y-112.522
X118.374Y-115.062
X118.374Y-117.602
X118.374Y-120.142
X118.374Y-122.682
X118.374Y-125.222
X118.374Y-127.762
X118.374Y-130.302
X118.374Y-132.842
X118.374Y-135.382
X118.374Y-137.922
X118.374Y-140.462
X133.614Y-104.902
X133.614Y-107.442
X133.614Y-109.982
X133.614Y-112.522
X133.614Y-115.062
X133.614Y-117.602
X133.614Y-120.142
X133.614Y-122.682
X133.614Y-125.222
X133.614Y-127.762
X133.614Y-130.302
X133.614Y-132.842
X133.614Y-135.382
X133.614Y-137.922
X133.614Y-140.462
T11
X157.199Y-81.561
X157.199Y-91.721
X157.199Y-94.261
X164.819Y-81.561
X164.819Y-91.721
X164.819Y-94.261
X169.899Y-81.561
X169.899Y-91.721
X169.899Y-94.261
X169.899Y-101.96
X169.899Y-112.12
X169.899Y-114.66
X169.899Y-121.788
X169.899Y-131.948
X169.899Y-134.488
X177.519Y-81.561
X177.519Y-91.721
X177.519Y-94.261
X177.519Y-101.96
X177.519Y-112.12
X177.519Y-114.66
X177.519Y-121.788
X177.519Y-131.948
X177.519Y-134.488
X183.134Y-67.564
X183.134Y-75.184
X185.674Y-67.564
X185.674Y-75.184
X195.834Y-67.564
X195.834Y-75.184
T12
X103.624Y-75.266
X109.224Y-62.066
X114.3Y-60.83
X119.3Y-60.83
X127.08Y-60.83
X132.08Y-60.83
X139.74Y-60.83
X144.74Y-60.83
T13
X182.88Y-143.51
X182.89Y-57.16
T14
X180.33Y-140.96
X180.33Y-146.06
X180.34Y-54.61
X180.34Y-59.71
X185.43Y-140.96
X185.43Y-146.06
X185.44Y-54.61
X185.44Y-59.71
T15
X117.125Y-57.02
X117.125Y-72.52
X129.825Y-57.02
X129.825Y-72.52
X142.525Y-57.02
X142.525Y-72.52
T16
X106.68Y-55.74
X106.68Y-144.78
X195.44Y-55.88
X195.58Y-144.78
T0
M30
