G04 #@! TF.GenerationSoftware,KiCad,Pcbnew,7.0.7*
G04 #@! TF.CreationDate,2023-10-18T16:13:20+03:00*
G04 #@! TF.ProjectId,pcb,7063622e-6b69-4636-9164-5f7063625858,rev?*
G04 #@! TF.SameCoordinates,Original*
G04 #@! TF.FileFunction,Soldermask,Bot*
G04 #@! TF.FilePolarity,Negative*
%FSLAX46Y46*%
G04 Gerber Fmt 4.6, Leading zero omitted, Abs format (unit mm)*
G04 Created by KiCad (PCBNEW 7.0.7) date 2023-10-18 16:13:20*
%MOMM*%
%LPD*%
G01*
G04 APERTURE LIST*
G04 Aperture macros list*
%AMRoundRect*
0 Rectangle with rounded corners*
0 $1 Rounding radius*
0 $2 $3 $4 $5 $6 $7 $8 $9 X,Y pos of 4 corners*
0 Add a 4 corners polygon primitive as box body*
4,1,4,$2,$3,$4,$5,$6,$7,$8,$9,$2,$3,0*
0 Add four circle primitives for the rounded corners*
1,1,$1+$1,$2,$3*
1,1,$1+$1,$4,$5*
1,1,$1+$1,$6,$7*
1,1,$1+$1,$8,$9*
0 Add four rect primitives between the rounded corners*
20,1,$1+$1,$2,$3,$4,$5,0*
20,1,$1+$1,$4,$5,$6,$7,0*
20,1,$1+$1,$6,$7,$8,$9,0*
20,1,$1+$1,$8,$9,$2,$3,0*%
G04 Aperture macros list end*
%ADD10C,1.800000*%
%ADD11C,1.150000*%
%ADD12R,2.500000X2.500000*%
%ADD13C,2.500000*%
%ADD14C,1.600000*%
%ADD15R,1.600000X1.600000*%
%ADD16O,1.600000X1.600000*%
%ADD17C,1.200000*%
%ADD18RoundRect,0.102000X0.749000X0.749000X-0.749000X0.749000X-0.749000X-0.749000X0.749000X-0.749000X0*%
%ADD19C,1.702000*%
%ADD20C,1.400000*%
%ADD21C,1.440000*%
%ADD22C,3.159000*%
%ADD23C,2.454000*%
%ADD24C,2.304000*%
%ADD25C,0.800000*%
%ADD26C,6.400000*%
%ADD27RoundRect,0.102000X0.610000X-0.610000X0.610000X0.610000X-0.610000X0.610000X-0.610000X-0.610000X0*%
%ADD28C,1.424000*%
%ADD29RoundRect,0.250000X0.350000X0.450000X-0.350000X0.450000X-0.350000X-0.450000X0.350000X-0.450000X0*%
%ADD30RoundRect,0.250000X-0.350000X-0.450000X0.350000X-0.450000X0.350000X0.450000X-0.350000X0.450000X0*%
%ADD31RoundRect,0.250000X-0.450000X0.350000X-0.450000X-0.350000X0.450000X-0.350000X0.450000X0.350000X0*%
%ADD32R,2.000000X0.650000*%
%ADD33RoundRect,0.250000X0.250000X-0.250000X0.250000X0.250000X-0.250000X0.250000X-0.250000X-0.250000X0*%
%ADD34RoundRect,0.250000X0.450000X-0.350000X0.450000X0.350000X-0.450000X0.350000X-0.450000X-0.350000X0*%
%ADD35RoundRect,0.250000X-0.250000X0.250000X-0.250000X-0.250000X0.250000X-0.250000X0.250000X0.250000X0*%
%ADD36RoundRect,0.150000X0.150000X-0.825000X0.150000X0.825000X-0.150000X0.825000X-0.150000X-0.825000X0*%
G04 APERTURE END LIST*
D10*
X109224302Y-62066352D03*
X103624302Y-75266352D03*
D11*
X105174302Y-73666352D03*
X105174302Y-71666352D03*
X105174302Y-69666352D03*
X105174302Y-67666352D03*
X105174302Y-65666352D03*
X105174302Y-63666352D03*
X107674302Y-73666352D03*
X107674302Y-71666352D03*
X107674302Y-69666352D03*
X107674302Y-67666352D03*
X107674302Y-65666352D03*
X107674302Y-63666352D03*
D12*
X114300000Y-60830000D03*
D13*
X119300000Y-60830000D03*
D12*
X127080000Y-60830000D03*
D13*
X132080000Y-60830000D03*
X144740000Y-60830000D03*
D12*
X139740000Y-60830000D03*
D14*
X183134000Y-67564000D03*
X183134000Y-75184000D03*
X185674000Y-75184000D03*
X185674000Y-67564000D03*
X195834000Y-75184000D03*
X195834000Y-67564000D03*
X169899000Y-134488000D03*
X177519000Y-134488000D03*
X177519000Y-131948000D03*
X169899000Y-131948000D03*
X177519000Y-121788000D03*
X169899000Y-121788000D03*
X157199000Y-94261000D03*
X164819000Y-94261000D03*
X164819000Y-91721000D03*
X157199000Y-91721000D03*
X164819000Y-81561000D03*
X157199000Y-81561000D03*
X169899000Y-114660000D03*
X177519000Y-114660000D03*
X177519000Y-112120000D03*
X169899000Y-112120000D03*
X177519000Y-101960000D03*
X169899000Y-101960000D03*
X169899000Y-94261000D03*
X177519000Y-94261000D03*
X177519000Y-91721000D03*
X169899000Y-91721000D03*
X177519000Y-81561000D03*
X169899000Y-81561000D03*
D15*
X182636000Y-86878000D03*
D16*
X182636000Y-89418000D03*
X182636000Y-91958000D03*
X182636000Y-94498000D03*
X190256000Y-94498000D03*
X190256000Y-91958000D03*
X190256000Y-89418000D03*
X190256000Y-86878000D03*
D17*
X191516000Y-61976000D03*
X189516000Y-61976000D03*
D18*
X110946000Y-110708000D03*
D19*
X104446000Y-110708000D03*
X110946000Y-106208000D03*
X104446000Y-106208000D03*
D15*
X182636000Y-123200000D03*
D16*
X182636000Y-125740000D03*
X182636000Y-128280000D03*
X182636000Y-130820000D03*
X190256000Y-130820000D03*
X190256000Y-128280000D03*
X190256000Y-125740000D03*
X190256000Y-123200000D03*
D20*
X171704000Y-70231000D03*
D18*
X110946000Y-119598000D03*
D19*
X104446000Y-119598000D03*
X110946000Y-115098000D03*
X104446000Y-115098000D03*
D21*
X145034000Y-114046000D03*
X142494000Y-114046000D03*
X139954000Y-114046000D03*
D22*
X129825000Y-57020000D03*
X129825000Y-72520000D03*
X142525000Y-57020000D03*
X142525000Y-72520000D03*
D20*
X176784000Y-70231000D03*
X172720000Y-143510000D03*
D23*
X185430000Y-140960000D03*
X185430000Y-146060000D03*
X180330000Y-146060000D03*
X180330000Y-140960000D03*
D24*
X182880000Y-143510000D03*
D25*
X193040000Y-55880000D03*
X193742944Y-54182944D03*
X193742944Y-57577056D03*
X195440000Y-53480000D03*
D26*
X195440000Y-55880000D03*
D25*
X195440000Y-58280000D03*
X197137056Y-54182944D03*
X197137056Y-57577056D03*
X197840000Y-55880000D03*
D17*
X125492000Y-91186000D03*
X127492000Y-91186000D03*
X195342000Y-116586000D03*
X197342000Y-116586000D03*
D15*
X118374000Y-104902000D03*
D16*
X118374000Y-107442000D03*
X118374000Y-109982000D03*
X118374000Y-112522000D03*
X118374000Y-115062000D03*
X118374000Y-117602000D03*
X118374000Y-120142000D03*
X118374000Y-122682000D03*
X118374000Y-125222000D03*
X118374000Y-127762000D03*
X118374000Y-130302000D03*
X118374000Y-132842000D03*
X118374000Y-135382000D03*
X118374000Y-137922000D03*
X118374000Y-140462000D03*
X133614000Y-140462000D03*
X133614000Y-137922000D03*
X133614000Y-135382000D03*
X133614000Y-132842000D03*
X133614000Y-130302000D03*
X133614000Y-127762000D03*
X133614000Y-125222000D03*
X133614000Y-122682000D03*
X133614000Y-120142000D03*
X133614000Y-117602000D03*
X133614000Y-115062000D03*
X133614000Y-112522000D03*
X133614000Y-109982000D03*
X133614000Y-107442000D03*
X133614000Y-104902000D03*
D24*
X182890000Y-57160000D03*
D23*
X185440000Y-59710000D03*
X185440000Y-54610000D03*
X180340000Y-54610000D03*
X180340000Y-59710000D03*
D25*
X104280000Y-144780000D03*
X104982944Y-143082944D03*
X104982944Y-146477056D03*
X106680000Y-142380000D03*
D26*
X106680000Y-144780000D03*
D25*
X106680000Y-147180000D03*
X108377056Y-143082944D03*
X108377056Y-146477056D03*
X109080000Y-144780000D03*
X104280000Y-55740000D03*
X104982944Y-54042944D03*
X104982944Y-57437056D03*
X106680000Y-53340000D03*
D26*
X106680000Y-55740000D03*
D25*
X106680000Y-58140000D03*
X108377056Y-54042944D03*
X108377056Y-57437056D03*
X109080000Y-55740000D03*
D20*
X178054000Y-63754000D03*
D22*
X117125000Y-57020000D03*
X117125000Y-72520000D03*
D15*
X182636000Y-105039000D03*
D16*
X182636000Y-107579000D03*
X182636000Y-110119000D03*
X182636000Y-112659000D03*
X190256000Y-112659000D03*
X190256000Y-110119000D03*
X190256000Y-107579000D03*
X190256000Y-105039000D03*
D20*
X166958000Y-70231000D03*
X163164000Y-112792000D03*
D27*
X133350000Y-95236000D03*
D28*
X133350000Y-87136000D03*
X135890000Y-95236000D03*
X135890000Y-87136000D03*
X138430000Y-95236000D03*
X138430000Y-87136000D03*
X140970000Y-95236000D03*
X140970000Y-87136000D03*
X143510000Y-95236000D03*
X143510000Y-87136000D03*
X146050000Y-95236000D03*
X146050000Y-87136000D03*
X148590000Y-95236000D03*
X148590000Y-87136000D03*
X151130000Y-95236000D03*
X151130000Y-87136000D03*
D25*
X193180000Y-144780000D03*
X193882944Y-143082944D03*
X193882944Y-146477056D03*
X195580000Y-142380000D03*
D26*
X195580000Y-144780000D03*
D25*
X195580000Y-147180000D03*
X197277056Y-143082944D03*
X197277056Y-146477056D03*
X197980000Y-144780000D03*
D17*
X125492000Y-81788000D03*
X127492000Y-81788000D03*
D29*
X149655000Y-145812000D03*
X147655000Y-145812000D03*
D30*
X161625048Y-134636000D03*
X163625048Y-134636000D03*
D29*
X163625048Y-140224000D03*
X161625048Y-140224000D03*
X149655000Y-134636000D03*
X147655000Y-134636000D03*
D31*
X159766000Y-82979000D03*
X159766000Y-84979000D03*
X172466000Y-82979000D03*
X172466000Y-84979000D03*
D32*
X175446000Y-129032000D03*
X172026000Y-129982000D03*
X172026000Y-128082000D03*
D33*
X173736000Y-115026000D03*
X173736000Y-112526000D03*
D32*
X175446000Y-88805000D03*
X172026000Y-89755000D03*
X172026000Y-87855000D03*
X175446000Y-109204000D03*
X172026000Y-110154000D03*
X172026000Y-108254000D03*
D34*
X175006000Y-84979000D03*
X175006000Y-82979000D03*
D29*
X163625048Y-145812000D03*
X161625048Y-145812000D03*
D30*
X161625048Y-137430000D03*
X163625048Y-137430000D03*
D35*
X185674000Y-70124000D03*
X185674000Y-72624000D03*
D33*
X173736000Y-134854000D03*
X173736000Y-132354000D03*
D34*
X162306000Y-84979000D03*
X162306000Y-82979000D03*
X172466000Y-105378000D03*
X172466000Y-103378000D03*
D36*
X197104000Y-83312000D03*
X195834000Y-83312000D03*
X194564000Y-83312000D03*
X193294000Y-83312000D03*
X192024000Y-83312000D03*
X190754000Y-83312000D03*
X189484000Y-83312000D03*
X189484000Y-78362000D03*
X190754000Y-78362000D03*
X192024000Y-78362000D03*
X193294000Y-78362000D03*
X194564000Y-78362000D03*
X195834000Y-78362000D03*
X197104000Y-78362000D03*
D31*
X172212000Y-123206000D03*
X172212000Y-125206000D03*
D29*
X149655000Y-137430000D03*
X147655000Y-137430000D03*
D33*
X173736000Y-94627000D03*
X173736000Y-92127000D03*
D31*
X175006000Y-103378000D03*
X175006000Y-105378000D03*
D29*
X149655000Y-143018000D03*
X147655000Y-143018000D03*
D30*
X147655000Y-140224000D03*
X149655000Y-140224000D03*
D34*
X175006000Y-125190000D03*
X175006000Y-123190000D03*
D33*
X161036000Y-94627000D03*
X161036000Y-92127000D03*
D29*
X163625048Y-143018000D03*
X161625048Y-143018000D03*
D32*
X162746000Y-88805000D03*
X159326000Y-89755000D03*
X159326000Y-87855000D03*
M02*
